<svg width="159" height="300" viewBox="0 0 159 300" fill="none" xmlns="http://www.w3.org/2000/svg">
<g id="Group 30">
<g id="Group 2">
<g id="iPhone-X-Mockup">
<g id="phone">
<g id="body" filter="url(#filter0_d_0_2411)">
<path fill-rule="evenodd" clip-rule="evenodd" d="M21.6289 0.341797H137.241C148.329 0.341797 157.318 8.88301 157.318 19.4191V280.581C157.318 291.117 148.329 299.658 137.241 299.658H21.6289C10.541 299.658 1.55249 291.117 1.55249 280.581V19.4191C1.55249 8.88301 10.541 0.341797 21.6289 0.341797Z" fill="#213648"/>
</g>
<g id="frame">
<path id="reflect-frame-top" opacity="0.595562" fill-rule="evenodd" clip-rule="evenodd" d="M137.688 0H21.113C15.6704 0.329373 10.6509 2.79416 6.05457 7.39437C9.01053 4.83354 14.2828 1.40674 21.2533 1.40674C21.2533 1.40674 132.901 1.40674 137.548 1.40674C144.519 1.40674 149.791 4.83354 152.747 7.39437C148.15 2.79416 143.131 0.329373 137.688 0Z" fill="url(#paint0_linear_0_2411)" fill-opacity="0.65"/>
<path id="reflect-frame-right" opacity="0.75" fill-rule="evenodd" clip-rule="evenodd" d="M154.163 277.603V20.9891C154.163 14.1039 151.614 11.5587 150.092 9.92433C148.571 8.28996 148.507 7.45637 150.692 8.69035C152.878 9.92433 157.249 13.5184 157.249 20.9891V277.603C157.249 285.073 152.878 288.667 150.692 289.901C148.507 291.135 148.571 290.302 150.092 288.667C151.614 287.033 154.163 284.488 154.163 277.603Z" fill="url(#paint1_linear_0_2411)"/>
<path id="reflect-frame-left" opacity="0.75" fill-rule="evenodd" clip-rule="evenodd" d="M4.63817 277.603V20.9891C4.63817 14.1039 7.18788 11.5587 8.70891 9.92433C10.2299 8.28996 10.2947 7.45637 8.10922 8.69035C5.92376 9.92433 1.55249 13.5184 1.55249 20.9891V277.603C1.55249 285.073 5.92376 288.667 8.10922 289.901C10.2947 291.135 10.2299 290.302 8.70891 288.667C7.18788 287.033 4.63817 284.488 4.63817 277.603Z" fill="url(#paint2_linear_0_2411)"/>
</g>
<g id="controls">
<path id="vol+" fill-rule="evenodd" clip-rule="evenodd" d="M0 62.4345C0 61.6057 0.671881 60.9338 1.50069 60.9338C2.32949 60.9338 3.00138 61.6057 3.00138 62.4345V98.0436C3.00138 98.8724 2.32949 99.5443 1.50069 99.5443C0.671881 99.5443 0 98.8724 0 98.0436V62.4345Z" fill="#2E423C"/>
<path id="power" fill-rule="evenodd" clip-rule="evenodd" d="M155.696 93.9267C155.696 93.0979 156.368 92.426 157.197 92.426C158.026 92.426 158.698 93.0979 158.698 93.9267V119.095C158.698 119.924 158.026 120.596 157.197 120.596C156.368 120.596 155.696 119.924 155.696 119.095V93.9267Z" fill="#2E423C"/>
</g>
</g>
<g id="Screen">
<path id="Screen Mask" fill-rule="evenodd" clip-rule="evenodd" d="M65.7015 7.4668L20.7182 7.4668C14.0049 7.4668 9.11328 12.0048 9.11328 17.9316V271.365C9.11328 279.093 16.6717 285.941 25.2183 285.941H133.636C141.869 285.941 149.741 279.04 149.741 271.365V18.6167C149.741 11.5129 144.428 7.50904 138.137 7.4668L92.4401 7.4668C92.2669 7.49496 89.1279 8.77585 87.8012 12.0048C86.4745 15.2337 83.805 17.8077 80.8823 17.8077H77.4877C76.0984 17.8077 72.4409 16.4699 70.5889 12.0048C68.7368 7.53966 65.8747 7.49496 65.7015 7.4668Z" fill="white"/>
<mask id="mask0_0_2411" style="mask-type:alpha" maskUnits="userSpaceOnUse" x="9" y="7" width="141" height="279">
<path id="Screen Mask_2" fill-rule="evenodd" clip-rule="evenodd" d="M65.7015 7.4668L20.7182 7.4668C14.0049 7.4668 9.11328 12.0048 9.11328 17.9316V271.365C9.11328 279.093 16.6717 285.941 25.2183 285.941H133.636C141.869 285.941 149.741 279.04 149.741 271.365V18.6167C149.741 11.5129 144.428 7.50904 138.137 7.4668L92.4401 7.4668C92.2669 7.49496 89.1279 8.77585 87.8012 12.0048C86.4745 15.2337 83.805 17.8077 80.8823 17.8077H77.4877C76.0984 17.8077 72.4409 16.4699 70.5889 12.0048C68.7368 7.53966 65.8747 7.49496 65.7015 7.4668Z" fill="white"/>
</mask>
<g mask="url(#mask0_0_2411)">
<rect id="Rectangle" x="9" y="7" width="141" height="279" fill="url(#paint3_linear_0_2411)"/>
<path id="12:49" fill-rule="evenodd" clip-rule="evenodd" d="M73.4519 81.6385V84.0001H63.1792V81.9073C63.1792 81.2033 63.3114 80.5937 63.5758 80.0785C63.8402 79.5633 64.19 79.1153 64.6253 78.7345C65.0606 78.3537 65.5378 78.0193 66.0569 77.7313C66.576 77.4433 67.0968 77.1713 67.6191 76.9153C68.1415 76.6593 68.6203 76.4017 69.0556 76.1425C69.4908 75.8833 69.8407 75.5937 70.1051 75.2737C70.3695 74.9537 70.5017 74.5761 70.5017 74.1409C70.5017 73.5841 70.3066 73.1297 69.9164 72.7777C69.5263 72.4257 68.9927 72.2497 68.3156 72.2497C67.6127 72.2497 67.0162 72.4513 66.5261 72.8545C66.036 73.2577 65.7329 73.8657 65.6168 74.6785H62.918C62.9309 73.7953 63.1389 72.9937 63.5419 72.2737C63.945 71.5537 64.5495 70.9825 65.3556 70.5601C66.1617 70.1377 67.1742 69.9265 68.393 69.9265C69.4376 69.9265 70.3388 70.1025 71.0966 70.4545C71.8543 70.8065 72.4395 71.2961 72.8522 71.9233C73.2649 72.5505 73.4713 73.2833 73.4713 74.1217C73.4713 74.8193 73.3423 75.4209 73.0844 75.9265C72.8264 76.4321 72.4846 76.8641 72.059 77.2225C71.6334 77.5809 71.1659 77.8945 70.6564 78.1633C70.147 78.4321 69.6392 78.6817 69.1329 78.9121C68.6267 79.1425 68.1608 79.3777 67.7352 79.6177C67.3096 79.8577 66.9678 80.1281 66.7098 80.4289C66.4519 80.7297 66.3229 81.0913 66.3229 81.5137V81.6385H73.4519ZM59.9968 70.1185V84.0001H57.1336V73.6033H54.6379V72.0193C55.4376 72.0193 56.0841 71.9441 56.5774 71.7937C57.0707 71.6433 57.4399 71.4257 57.6849 71.1409C57.93 70.8561 58.0751 70.5153 58.1202 70.1185H59.9968ZM78.4239 77.3185V74.3137H75.3285V77.3185H78.4239ZM78.4239 80.9473V83.9425H75.3285V80.9473H78.4239ZM89.5672 84.0001V80.9281H91.7242V78.5761H89.5672V70.1185H86.791L80.4165 78.6241V80.9281H86.8587L86.849 84.0001H89.5672ZM83.0282 78.5761H86.8587V73.4881L83.0282 78.5761ZM98.2632 84.2113C99.4884 84.2113 100.543 83.9377 101.426 83.3905C102.31 82.8433 102.988 82.0177 103.462 80.9137C103.936 79.8097 104.173 78.4289 104.173 76.7713C104.173 75.3825 103.943 74.1745 103.482 73.1473C103.021 72.1201 102.36 71.3265 101.499 70.7665C100.638 70.2065 99.6142 69.9265 98.4276 69.9265C97.37 69.9265 96.4479 70.1281 95.6611 70.5313C94.8744 70.9345 94.2618 71.4913 93.8233 72.2017C93.3848 72.9121 93.1655 73.7217 93.1655 74.6305C93.1655 75.5329 93.3735 76.3121 93.7894 76.9681C94.2054 77.6241 94.7793 78.1297 95.5112 78.4849C96.2431 78.8401 97.0831 79.0177 98.031 79.0177C98.5534 79.0177 99.0274 78.9489 99.453 78.8113C99.8786 78.6737 100.251 78.4785 100.57 78.2257C100.889 77.9729 101.139 77.6769 101.32 77.3377C101.397 78.4449 101.309 79.3409 101.054 80.0257C100.799 80.7105 100.419 81.2097 99.9124 81.5233C99.4062 81.8369 98.8178 81.9937 98.1471 81.9937C97.5409 81.9937 97.0379 81.8257 96.6381 81.4897C96.2383 81.1537 95.9804 80.7169 95.8643 80.1793H93.1752C93.2332 80.9921 93.5008 81.7009 93.978 82.3057C94.4552 82.9105 95.0711 83.3793 95.8256 83.7121C96.5801 84.0449 97.3926 84.2113 98.2632 84.2113ZM96.8413 76.1905C97.2669 76.5905 97.8247 76.7905 98.5147 76.7905C98.9081 76.7905 99.2901 76.7025 99.6609 76.5265C100.032 76.3505 100.336 76.1281 100.575 75.8593C100.814 75.5905 100.933 75.3121 100.933 75.0241C100.939 74.4033 100.841 73.8705 100.638 73.4257C100.435 72.9809 100.151 72.6401 99.7867 72.4033C99.4223 72.1665 98.9983 72.0481 98.5147 72.0481C98.0697 72.0481 97.6731 72.1505 97.3249 72.3553C96.9767 72.5601 96.7026 72.8481 96.5027 73.2193C96.3028 73.5905 96.2028 74.0193 96.2028 74.5057C96.2028 75.2289 96.4156 75.7905 96.8413 76.1905Z" fill="white"/>
</g>
</g>
</g>
</g>
<g id="Group 29" clip-path="url(#clip0_0_2411)">
<g id="Rectangle_2" filter="url(#filter1_d_0_2411)">
<rect x="12.8054" y="100" width="131.255" height="53.1915" rx="5" fill="#FBFCFE"/>
</g>
<g id="Group 28">
<path id="YourApp" fill-rule="evenodd" clip-rule="evenodd" d="M24.8864 115.285V113.426L26.4006 110.865H25.4403L24.4499 112.656L23.4474 110.865H22.4961L24.0073 113.423V115.285H24.8864ZM28.1708 115.346C28.4879 115.346 28.7583 115.277 28.9821 115.138C29.2059 115 29.3774 114.809 29.4969 114.565C29.6163 114.321 29.676 114.041 29.676 113.723C29.676 113.384 29.6148 113.091 29.4923 112.842C29.3699 112.594 29.1963 112.402 28.9715 112.266C28.7468 112.131 28.4808 112.063 28.1738 112.063C27.8667 112.063 27.6003 112.132 27.3745 112.271C27.1487 112.409 26.9741 112.603 26.8507 112.852C26.7273 113.1 26.6655 113.391 26.6655 113.723C26.6655 114.055 26.7273 114.342 26.8507 114.585C26.9741 114.827 27.1487 115.015 27.3745 115.147C27.6003 115.28 27.8657 115.346 28.1708 115.346ZM27.7854 114.539C27.8798 114.635 28.0092 114.683 28.1738 114.683C28.3283 114.683 28.4527 114.637 28.5471 114.545C28.6414 114.453 28.7101 114.333 28.7533 114.183C28.7964 114.033 28.818 113.87 28.818 113.692C28.818 113.525 28.7984 113.367 28.7593 113.218C28.7202 113.07 28.6534 112.949 28.5591 112.858C28.4648 112.766 28.3363 112.72 28.1738 112.72C28.0192 112.72 27.8943 112.763 27.799 112.85C27.7036 112.937 27.6339 113.054 27.5898 113.202C27.5456 113.349 27.5235 113.513 27.5235 113.692C27.5235 113.857 27.5436 114.016 27.5837 114.168C27.6239 114.319 27.6911 114.443 27.7854 114.539ZM31.407 115.346C31.5294 115.346 31.6543 115.327 31.7818 115.289C31.9092 115.252 32.0226 115.184 32.122 115.085C32.2213 114.986 32.289 114.844 32.3252 114.658L32.4275 115.285H33.0898V112.124H32.2198V114.181C32.2198 114.344 32.1691 114.471 32.0678 114.562C31.9664 114.653 31.8295 114.698 31.6569 114.698C31.4742 114.698 31.3357 114.651 31.2414 114.557C31.1471 114.464 31.0999 114.343 31.0999 114.197V112.124H30.2209V114.31C30.2209 114.479 30.2555 114.628 30.3247 114.756C30.394 114.884 30.4858 114.992 30.6002 115.08C30.7146 115.168 30.8415 115.234 30.981 115.279C31.1205 115.324 31.2625 115.346 31.407 115.346ZM34.6823 113.555V115.285H33.8033V112.124H34.6492V112.873C34.6994 112.712 34.7701 112.571 34.8615 112.45C34.9528 112.328 35.0637 112.234 35.1941 112.165C35.3246 112.097 35.4721 112.063 35.6366 112.063C35.6647 112.063 35.6913 112.064 35.7164 112.067C35.7415 112.07 35.7601 112.075 35.7721 112.081V112.931C35.7541 112.923 35.7325 112.918 35.7074 112.916C35.6823 112.914 35.6597 112.912 35.6397 112.91C35.4671 112.895 35.3195 112.9 35.1971 112.925C35.0747 112.949 34.9754 112.991 34.8991 113.05C34.8228 113.109 34.7676 113.182 34.7335 113.267C34.6994 113.353 34.6823 113.449 34.6823 113.555ZM38.1985 115.285L38.5628 114.261H40.1282L40.4835 115.285H41.3595L39.8031 110.865H38.8759L37.3165 115.285H38.1985ZM38.7585 113.481H39.9175L39.3425 111.727L38.7585 113.481ZM42.7804 116.269V114.811C42.8246 114.886 42.8762 114.956 42.9355 115.02C42.9947 115.085 43.0619 115.141 43.1372 115.19C43.2124 115.239 43.2942 115.277 43.3825 115.305C43.4708 115.332 43.5651 115.346 43.6655 115.346C43.9103 115.346 44.1301 115.287 44.3248 115.169C44.5194 115.051 44.6725 114.869 44.7839 114.623C44.8952 114.377 44.9509 114.063 44.9509 113.68C44.9509 113.311 44.8993 113.007 44.7959 112.767C44.6925 112.528 44.5506 112.351 44.3699 112.236C44.1893 112.12 43.9836 112.063 43.7528 112.063C43.6464 112.063 43.5451 112.076 43.4487 112.101C43.3524 112.127 43.2631 112.163 43.1808 112.21C43.0985 112.256 43.0238 112.311 42.9565 112.373C42.8893 112.435 42.8326 112.504 42.7864 112.579L42.7834 112.124H41.9014V116.269H42.7804ZM43.0769 114.551C43.1763 114.645 43.3022 114.692 43.4548 114.692C43.6454 114.692 43.8055 114.611 43.9349 114.45C44.0644 114.289 44.1291 114.035 44.1291 113.686C44.1291 113.38 44.0674 113.141 43.9439 112.969C43.8205 112.797 43.6575 112.711 43.4548 112.711C43.228 112.711 43.0589 112.804 42.9475 112.991C42.8361 113.177 42.7804 113.409 42.7804 113.686C42.7804 113.863 42.805 114.028 42.8542 114.181C42.9033 114.334 42.9776 114.457 43.0769 114.551ZM46.414 116.269V114.811C46.4582 114.886 46.5098 114.956 46.569 115.02C46.6283 115.085 46.6955 115.141 46.7708 115.19C46.846 115.239 46.9278 115.277 47.0161 115.305C47.1044 115.332 47.1987 115.346 47.2991 115.346C47.5439 115.346 47.7637 115.287 47.9584 115.169C48.153 115.051 48.3061 114.869 48.4175 114.623C48.5288 114.377 48.5845 114.063 48.5845 113.68C48.5845 113.311 48.5329 113.007 48.4295 112.767C48.3261 112.528 48.1842 112.351 48.0035 112.236C47.8229 112.12 47.6172 112.063 47.3864 112.063C47.28 112.063 47.1787 112.076 47.0823 112.101C46.986 112.127 46.8967 112.163 46.8144 112.21C46.7321 112.256 46.6574 112.311 46.5901 112.373C46.5229 112.435 46.4662 112.504 46.42 112.579L46.417 112.124H45.535V116.269H46.414ZM46.7105 114.551C46.8099 114.645 46.9358 114.692 47.0884 114.692C47.279 114.692 47.4391 114.611 47.5685 114.45C47.698 114.289 47.7627 114.035 47.7627 113.686C47.7627 113.38 47.701 113.141 47.5775 112.969C47.4541 112.797 47.2911 112.711 47.0884 112.711C46.8616 112.711 46.6925 112.804 46.5811 112.991C46.4697 113.177 46.414 113.409 46.414 113.686C46.414 113.863 46.4386 114.028 46.4878 114.181C46.5369 114.334 46.6112 114.457 46.7105 114.551Z" fill="#BA4270"/>
<path id="JustNow" opacity="0.5" fill-rule="evenodd" clip-rule="evenodd" d="M110.691 115.218C110.558 115.303 110.369 115.346 110.124 115.346C109.969 115.346 109.824 115.328 109.689 115.291C109.553 115.254 109.463 115.227 109.419 115.208L109.458 114.667C109.521 114.69 109.592 114.718 109.674 114.751C109.755 114.785 109.856 114.802 109.976 114.802C110.173 114.802 110.308 114.747 110.381 114.637C110.454 114.527 110.491 114.341 110.491 114.08V110.865H111.048V114.242C111.048 114.477 111.022 114.677 110.97 114.842C110.918 115.007 110.825 115.132 110.691 115.218ZM113.524 115.28C113.397 115.326 113.26 115.348 113.113 115.346C112.951 115.344 112.798 115.32 112.654 115.274C112.511 115.228 112.384 115.161 112.273 115.071C112.163 114.981 112.076 114.87 112.013 114.736C111.95 114.603 111.918 114.447 111.918 114.27V112.124H112.475V114.212C112.475 114.418 112.538 114.585 112.663 114.713C112.788 114.842 112.978 114.906 113.231 114.906C113.459 114.906 113.643 114.845 113.783 114.724C113.922 114.603 113.992 114.422 113.992 114.181V112.124H114.546V115.285H114.104L114.046 114.68C114.008 114.839 113.943 114.967 113.852 115.065C113.761 115.163 113.651 115.234 113.524 115.28ZM116.521 115.346C116.774 115.346 116.989 115.308 117.167 115.231C117.344 115.155 117.481 115.047 117.576 114.907C117.671 114.768 117.719 114.601 117.719 114.408C117.719 114.33 117.708 114.249 117.684 114.165C117.661 114.08 117.622 113.999 117.567 113.921C117.512 113.844 117.438 113.774 117.344 113.711C117.251 113.647 117.132 113.596 116.988 113.558L116.364 113.399C116.192 113.356 116.061 113.302 115.973 113.238C115.885 113.174 115.841 113.086 115.841 112.974C115.841 112.805 115.903 112.68 116.027 112.599C116.152 112.519 116.313 112.479 116.512 112.479C116.703 112.479 116.855 112.523 116.968 112.612C117.081 112.7 117.148 112.82 117.168 112.971H117.659C117.651 112.673 117.543 112.448 117.335 112.294C117.128 112.14 116.855 112.063 116.518 112.063C116.255 112.063 116.035 112.104 115.859 112.185C115.682 112.267 115.55 112.378 115.461 112.518C115.373 112.659 115.33 112.822 115.332 113.007C115.332 113.242 115.407 113.424 115.558 113.555C115.708 113.685 115.909 113.781 116.16 113.842L116.804 114.004C116.944 114.037 117.048 114.088 117.115 114.158C117.183 114.229 117.216 114.322 117.216 114.438C117.216 114.603 117.152 114.725 117.024 114.805C116.895 114.884 116.727 114.924 116.518 114.924C116.387 114.924 116.267 114.903 116.157 114.862C116.046 114.82 115.954 114.758 115.881 114.675C115.808 114.592 115.757 114.489 115.729 114.365H115.223C115.256 114.591 115.333 114.777 115.455 114.923C115.578 115.068 115.732 115.175 115.917 115.244C116.103 115.312 116.304 115.346 116.521 115.346ZM119.963 115.285C119.886 115.295 119.79 115.3 119.676 115.3C119.461 115.3 119.295 115.271 119.176 115.212C119.058 115.152 118.975 115.065 118.928 114.949C118.881 114.832 118.857 114.69 118.857 114.521V112.537H118.351V112.124H118.872L119.008 111.204H119.417V112.121H120.118V112.537H119.417V114.502C119.417 114.614 119.429 114.696 119.452 114.748C119.475 114.8 119.514 114.833 119.569 114.848C119.624 114.862 119.7 114.869 119.796 114.869H120.136V115.248C120.098 115.262 120.041 115.275 119.963 115.285ZM122.978 115.285V111.8L125.314 115.285H125.811V110.865H125.254V114.301L122.954 110.865H122.421V115.285H122.978ZM128.862 115.14C128.652 115.277 128.393 115.346 128.084 115.346C127.797 115.346 127.546 115.283 127.331 115.158C127.117 115.033 126.95 114.849 126.832 114.606C126.713 114.364 126.654 114.067 126.654 113.717C126.654 113.387 126.709 113.097 126.82 112.848C126.93 112.6 127.092 112.407 127.306 112.269C127.52 112.132 127.779 112.063 128.084 112.063C128.371 112.063 128.62 112.127 128.832 112.254C129.044 112.381 129.208 112.568 129.324 112.815C129.441 113.061 129.499 113.362 129.499 113.717C129.499 114.039 129.445 114.322 129.338 114.567C129.23 114.811 129.072 115.002 128.862 115.14ZM128.084 114.9C127.877 114.9 127.71 114.847 127.581 114.741C127.453 114.635 127.359 114.491 127.298 114.31C127.238 114.128 127.208 113.927 127.208 113.704C127.208 113.454 127.242 113.239 127.309 113.059C127.376 112.88 127.475 112.743 127.605 112.648C127.736 112.553 127.895 112.506 128.084 112.506C128.289 112.506 128.455 112.559 128.582 112.665C128.71 112.771 128.803 112.914 128.861 113.095C128.919 113.275 128.948 113.478 128.948 113.704C128.948 113.951 128.915 114.164 128.849 114.343C128.782 114.523 128.685 114.66 128.557 114.756C128.428 114.852 128.271 114.9 128.084 114.9ZM132.124 112.952L131.45 115.285H130.905L129.944 112.124H130.459L131.173 114.554H131.221L131.922 112.124H132.344L133.072 114.548H133.12L133.804 112.124H134.325L133.382 115.285H132.834L132.124 112.952Z" fill="#36536B"/>
</g>
<path id="The payment has been" d="M22.1495 122.353V121.8H25.705V122.353H24.2718V126.5H23.6673V122.353H22.1495ZM26.3566 126.5V121.67H26.9416V123.633C26.998 123.54 27.0738 123.454 27.1691 123.373C27.2645 123.291 27.3804 123.225 27.5169 123.175C27.6534 123.123 27.8115 123.097 27.9914 123.097C28.2102 123.097 28.4085 123.138 28.5861 123.221C28.7638 123.301 28.9046 123.416 29.0086 123.565C29.1126 123.715 29.1646 123.892 29.1646 124.098V126.5H28.5634V124.218C28.5634 124.017 28.494 123.862 28.3554 123.754C28.2189 123.643 28.0401 123.588 27.8191 123.588C27.6696 123.588 27.5288 123.613 27.3966 123.663C27.2645 123.71 27.1572 123.784 27.0749 123.884C26.9947 123.981 26.9546 124.106 26.9546 124.257V126.5H26.3566ZM30.5307 124.959C30.5307 125.172 30.5654 125.365 30.6347 125.538C30.7062 125.709 30.8135 125.846 30.9565 125.947C31.1017 126.049 31.2826 126.1 31.4992 126.1C31.7137 126.1 31.8979 126.05 32.0517 125.951C32.2077 125.851 32.3074 125.707 32.3507 125.518H32.9195C32.8783 125.746 32.7873 125.938 32.6465 126.094C32.5057 126.25 32.3356 126.368 32.1362 126.448C31.9369 126.526 31.7289 126.565 31.5122 126.565C31.1981 126.565 30.9218 126.497 30.6835 126.36C30.4452 126.224 30.2588 126.028 30.1245 125.772C29.9902 125.516 29.923 125.21 29.923 124.852C29.923 124.499 29.9837 124.189 30.105 123.923C30.2263 123.656 30.4018 123.448 30.6315 123.299C30.8633 123.149 31.1417 123.074 31.4667 123.074C31.7831 123.074 32.0507 123.143 32.2695 123.279C32.4883 123.416 32.6541 123.609 32.7667 123.858C32.8816 124.105 32.939 124.398 32.939 124.738V124.959H30.5307ZM30.534 124.553H32.3605C32.3605 124.36 32.328 124.187 32.263 124.033C32.198 123.877 32.0983 123.755 31.964 123.666C31.8318 123.575 31.665 123.529 31.4635 123.529C31.2533 123.529 31.0789 123.58 30.9402 123.682C30.8037 123.782 30.7008 123.911 30.6315 124.069C30.5643 124.225 30.5318 124.386 30.534 124.553ZM35.218 127.547V123.139H35.816L35.8225 123.724C35.8615 123.655 35.9113 123.583 35.972 123.507C36.0348 123.431 36.1106 123.36 36.1995 123.295C36.2905 123.23 36.3955 123.177 36.5147 123.136C36.636 123.095 36.7736 123.074 36.9275 123.074C37.1961 123.074 37.4323 123.136 37.636 123.26C37.8418 123.381 38.0021 123.567 38.117 123.819C38.2318 124.07 38.2892 124.389 38.2892 124.774C38.2892 125.16 38.2329 125.486 38.1202 125.752C38.0097 126.017 37.8494 126.218 37.6392 126.357C37.429 126.496 37.1755 126.565 36.8787 126.565C36.7292 126.565 36.596 126.543 36.479 126.5C36.3641 126.459 36.2634 126.405 36.1767 126.337C36.0922 126.268 36.0207 126.194 35.9622 126.116C35.9059 126.038 35.8593 125.964 35.8225 125.892V127.547H35.218ZM36.765 126.097C37.0423 126.097 37.2687 125.992 37.4442 125.782C37.6197 125.569 37.7075 125.24 37.7075 124.794C37.7075 124.41 37.6273 124.106 37.467 123.88C37.3066 123.655 37.0726 123.542 36.765 123.542C36.453 123.542 36.2168 123.658 36.0565 123.89C35.8961 124.12 35.816 124.421 35.816 124.794C35.816 125.034 35.8517 125.253 35.9232 125.45C35.9947 125.647 36.1009 125.804 36.2417 125.921C36.3825 126.038 36.557 126.097 36.765 126.097ZM39.9624 126.565C39.7457 126.565 39.554 126.527 39.3871 126.451C39.2203 126.373 39.0892 126.262 38.9939 126.116C38.9007 125.971 38.8541 125.796 38.8541 125.59C38.8541 125.217 38.9841 124.94 39.2441 124.758C39.5041 124.576 39.9212 124.478 40.4954 124.465L41.0966 124.449V124.186C41.0966 123.98 41.0349 123.818 40.9114 123.698C40.7879 123.577 40.5961 123.516 40.3361 123.516C40.1433 123.519 39.9732 123.564 39.8259 123.653C39.6807 123.742 39.5865 123.887 39.5431 124.088H39.0134C39.0264 123.87 39.0881 123.685 39.1986 123.536C39.3091 123.384 39.463 123.269 39.6601 123.191C39.8595 123.113 40.0946 123.074 40.3654 123.074C40.6579 123.074 40.9006 123.116 41.0934 123.198C41.2884 123.28 41.4336 123.402 41.5289 123.562C41.6264 123.722 41.6751 123.919 41.6751 124.153V126.5H41.1616L41.1194 125.869C40.9894 126.132 40.8236 126.314 40.6221 126.415C40.4228 126.515 40.2029 126.565 39.9624 126.565ZM40.1444 126.133C40.2571 126.133 40.3686 126.112 40.4791 126.071C40.5918 126.03 40.6947 125.975 40.7879 125.905C40.8811 125.834 40.9547 125.755 41.0089 125.668C41.0652 125.579 41.0945 125.488 41.0966 125.395V124.82L40.5961 124.83C40.3405 124.834 40.126 124.86 39.9526 124.907C39.7815 124.955 39.6526 125.03 39.5659 125.132C39.4814 125.234 39.4391 125.367 39.4391 125.531C39.4391 125.72 39.5041 125.867 39.6341 125.973C39.7663 126.08 39.9364 126.133 40.1444 126.133ZM42.9254 127.573C42.7283 127.573 42.5928 127.558 42.5192 127.53C42.4455 127.502 42.4087 127.488 42.4087 127.488V127.098L42.7499 127.105C42.8756 127.109 42.9796 127.1 43.0619 127.079C43.1443 127.057 43.2103 127.028 43.2602 126.991C43.31 126.954 43.3479 126.913 43.3739 126.867C43.4021 126.822 43.4248 126.778 43.4422 126.737L43.5592 126.419L42.2462 123.139H42.8539L43.8452 125.733L44.8299 123.139H45.4182L44.0012 126.754C43.9145 126.966 43.817 127.132 43.7087 127.251C43.6025 127.37 43.4833 127.453 43.3512 127.501C43.2212 127.549 43.0793 127.573 42.9254 127.573ZM46.0598 126.5V123.139H46.6383V123.627C46.7314 123.48 46.8593 123.351 47.0218 123.24C47.1843 123.13 47.3955 123.074 47.6555 123.074C47.7768 123.074 47.9003 123.095 48.026 123.136C48.1538 123.177 48.2708 123.239 48.377 123.321C48.4832 123.404 48.5655 123.505 48.624 123.624C48.728 123.459 48.8688 123.327 49.0465 123.227C49.2242 123.125 49.4246 123.074 49.6478 123.074C49.7648 123.074 49.8872 123.093 50.015 123.13C50.1428 123.164 50.2609 123.227 50.3693 123.318C50.4798 123.407 50.5697 123.532 50.639 123.692C50.7083 123.85 50.743 124.054 50.743 124.303V126.5H50.1385V124.361C50.1385 124.158 50.106 124.001 50.041 123.89C49.976 123.778 49.8904 123.698 49.7843 123.653C49.6803 123.607 49.5687 123.585 49.4495 123.585C49.3455 123.585 49.235 123.605 49.118 123.646C49.001 123.688 48.9013 123.757 48.819 123.854C48.7367 123.952 48.6955 124.085 48.6955 124.254V126.5H48.0975V124.186C48.0975 124.054 48.0618 123.943 47.9903 123.854C47.9209 123.766 47.8332 123.698 47.727 123.653C47.623 123.607 47.519 123.585 47.415 123.585C47.3002 123.585 47.1843 123.607 47.0673 123.653C46.9524 123.698 46.8549 123.771 46.7748 123.871C46.6968 123.968 46.6578 124.096 46.6578 124.254V126.5H46.0598ZM52.1128 124.959C52.1128 125.172 52.1474 125.365 52.2168 125.538C52.2883 125.709 52.3955 125.846 52.5385 125.947C52.6837 126.049 52.8646 126.1 53.0813 126.1C53.2958 126.1 53.4799 126.05 53.6338 125.951C53.7898 125.851 53.8894 125.707 53.9328 125.518H54.5015C54.4604 125.746 54.3694 125.938 54.2285 126.094C54.0877 126.25 53.9176 126.368 53.7183 126.448C53.5189 126.526 53.3109 126.565 53.0943 126.565C52.7801 126.565 52.5039 126.497 52.2655 126.36C52.0272 126.224 51.8409 126.028 51.7065 125.772C51.5722 125.516 51.505 125.21 51.505 124.852C51.505 124.499 51.5657 124.189 51.687 123.923C51.8084 123.656 51.9839 123.448 52.2135 123.299C52.4454 123.149 52.7238 123.074 53.0488 123.074C53.3651 123.074 53.6327 123.143 53.8515 123.279C54.0704 123.416 54.2361 123.609 54.3488 123.858C54.4636 124.105 54.521 124.398 54.521 124.738V124.959H52.1128ZM52.116 124.553H53.9425C53.9425 124.36 53.91 124.187 53.845 124.033C53.78 123.877 53.6804 123.755 53.546 123.666C53.4139 123.575 53.247 123.529 53.0455 123.529C52.8354 123.529 52.6609 123.58 52.5223 123.682C52.3858 123.782 52.2829 123.911 52.2135 124.069C52.1464 124.225 52.1139 124.386 52.116 124.553ZM55.3464 126.5V123.139H55.9281V123.627C55.9823 123.534 56.057 123.446 56.1524 123.364C56.2499 123.281 56.3669 123.215 56.5034 123.165C56.642 123.116 56.8013 123.091 56.9811 123.091C57.1935 123.091 57.3885 123.133 57.5661 123.218C57.746 123.302 57.889 123.434 57.9951 123.614C58.1035 123.792 58.1576 124.021 58.1576 124.303V126.5H57.5564V124.361C57.5564 124.099 57.487 123.905 57.3484 123.78C57.2119 123.652 57.0342 123.588 56.8154 123.588C56.6637 123.588 56.5218 123.613 56.3896 123.663C56.2575 123.71 56.1502 123.784 56.0679 123.884C55.9855 123.981 55.9444 124.105 55.9444 124.254V126.5H55.3464ZM60.6465 123.578H59.8892V125.668C59.8892 125.787 59.9011 125.875 59.925 125.931C59.951 125.985 59.9932 126.02 60.0517 126.035C60.1124 126.05 60.1947 126.058 60.2987 126.058H60.666V126.461C60.6248 126.476 60.562 126.489 60.4775 126.5C60.3951 126.511 60.2922 126.516 60.1687 126.516C59.9369 126.516 59.757 126.485 59.6292 126.422C59.5014 126.359 59.4115 126.266 59.3595 126.142C59.3096 126.019 59.2847 125.867 59.2847 125.688V123.578H58.7387V123.139H59.301L59.4472 122.161H59.8892V123.136H60.6465V123.578ZM63.008 126.5V121.67H63.593V123.633C63.6493 123.54 63.7252 123.454 63.8205 123.373C63.9158 123.291 64.0317 123.225 64.1682 123.175C64.3047 123.123 64.4629 123.097 64.6427 123.097C64.8616 123.097 65.0598 123.138 65.2375 123.221C65.4152 123.301 65.556 123.416 65.66 123.565C65.764 123.715 65.816 123.892 65.816 124.098V126.5H65.2147V124.218C65.2147 124.017 65.1454 123.862 65.0067 123.754C64.8702 123.643 64.6915 123.588 64.4705 123.588C64.321 123.588 64.1802 123.613 64.048 123.663C63.9158 123.71 63.8086 123.784 63.7262 123.884C63.6461 123.981 63.606 124.106 63.606 124.257V126.5H63.008ZM67.6699 126.565C67.4532 126.565 67.2615 126.527 67.0947 126.451C66.9278 126.373 66.7967 126.262 66.7014 126.116C66.6082 125.971 66.5617 125.796 66.5617 125.59C66.5617 125.217 66.6917 124.94 66.9517 124.758C67.2117 124.576 67.6287 124.478 68.2029 124.465L68.8042 124.449V124.186C68.8042 123.98 68.7424 123.818 68.6189 123.698C68.4954 123.577 68.3037 123.516 68.0437 123.516C67.8508 123.519 67.6807 123.564 67.5334 123.653C67.3882 123.742 67.294 123.887 67.2507 124.088H66.7209C66.7339 123.87 66.7957 123.685 66.9062 123.536C67.0167 123.384 67.1705 123.269 67.3677 123.191C67.567 123.113 67.8021 123.074 68.0729 123.074C68.3654 123.074 68.6081 123.116 68.8009 123.198C68.9959 123.28 69.1411 123.402 69.2364 123.562C69.3339 123.722 69.3827 123.919 69.3827 124.153V126.5H68.8692L68.8269 125.869C68.6969 126.132 68.5312 126.314 68.3297 126.415C68.1303 126.515 67.9104 126.565 67.6699 126.565ZM67.8519 126.133C67.9646 126.133 68.0762 126.112 68.1867 126.071C68.2993 126.03 68.4022 125.975 68.4954 125.905C68.5886 125.834 68.6622 125.755 68.7164 125.668C68.7727 125.579 68.802 125.488 68.8042 125.395V124.82L68.3037 124.83C68.048 124.834 67.8335 124.86 67.6602 124.907C67.489 124.955 67.3601 125.03 67.2734 125.132C67.1889 125.234 67.1467 125.367 67.1467 125.531C67.1467 125.72 67.2117 125.867 67.3417 125.973C67.4738 126.08 67.6439 126.133 67.8519 126.133ZM71.545 126.565C71.311 126.565 71.0932 126.529 70.8917 126.458C70.6924 126.384 70.5266 126.27 70.3945 126.116C70.2623 125.96 70.1789 125.762 70.1442 125.522H70.6902C70.7206 125.654 70.7747 125.764 70.8527 125.853C70.9329 125.94 71.0326 126.006 71.1517 126.051C71.2709 126.095 71.4009 126.116 71.5417 126.116C71.7671 126.116 71.9491 126.074 72.0877 125.99C72.2264 125.905 72.2957 125.775 72.2957 125.6C72.2957 125.476 72.2589 125.378 72.1852 125.304C72.1137 125.228 72.0021 125.173 71.8505 125.138L71.155 124.966C70.8841 124.901 70.6675 124.799 70.505 124.66C70.3425 124.522 70.2612 124.328 70.2612 124.079C70.2591 123.882 70.3056 123.708 70.401 123.559C70.4963 123.409 70.6393 123.291 70.83 123.204C71.0206 123.118 71.2579 123.074 71.5417 123.074C71.9057 123.074 72.1993 123.157 72.4225 123.321C72.6478 123.484 72.7648 123.723 72.7735 124.04H72.2437C72.2221 123.879 72.1495 123.753 72.026 123.659C71.9046 123.564 71.7411 123.516 71.5352 123.516C71.3207 123.516 71.1463 123.56 71.012 123.646C70.8776 123.731 70.8105 123.863 70.8105 124.043C70.8105 124.162 70.8581 124.256 70.9535 124.326C71.0488 124.393 71.1896 124.449 71.376 124.495L72.0487 124.664C72.2047 124.705 72.3326 124.759 72.4322 124.826C72.5341 124.893 72.6142 124.968 72.6727 125.05C72.7334 125.133 72.7756 125.219 72.7995 125.31C72.8255 125.399 72.8385 125.485 72.8385 125.567C72.8385 125.773 72.7865 125.951 72.6825 126.1C72.5806 126.248 72.4333 126.362 72.2405 126.445C72.0498 126.525 71.818 126.565 71.545 126.565ZM76.8118 126.565C76.6146 126.565 76.4478 126.539 76.3113 126.487C76.177 126.435 76.0665 126.369 75.9798 126.289C75.8931 126.206 75.826 126.123 75.7783 126.038C75.7306 125.952 75.696 125.876 75.6743 125.811L75.6093 126.5H75.1511V121.67H75.7556V123.672C75.7837 123.616 75.826 123.554 75.8823 123.487C75.9408 123.42 76.0156 123.355 76.1066 123.292C76.1976 123.229 76.3048 123.177 76.4283 123.136C76.554 123.095 76.697 123.074 76.8573 123.074C77.2776 123.074 77.6113 123.221 77.8583 123.513C78.1075 123.806 78.2321 124.237 78.2321 124.807C78.2321 125.16 78.179 125.469 78.0728 125.733C77.9666 125.995 77.8085 126.2 77.5983 126.347C77.3881 126.492 77.126 126.565 76.8118 126.565ZM76.7046 126.103C76.9776 126.103 77.1996 125.998 77.3708 125.788C77.542 125.576 77.6276 125.239 77.6276 124.777C77.6276 124.385 77.5474 124.082 77.3871 123.867C77.2289 123.651 76.9971 123.542 76.6916 123.542C76.4684 123.542 76.2886 123.591 76.1521 123.689C76.0177 123.784 75.9181 123.924 75.8531 124.108C75.7902 124.292 75.7577 124.515 75.7556 124.777C75.7556 125.248 75.8281 125.587 75.9733 125.795C76.1206 126.001 76.3644 126.103 76.7046 126.103ZM79.4458 124.959C79.4458 125.172 79.4804 125.365 79.5498 125.538C79.6213 125.709 79.7285 125.846 79.8715 125.947C80.0167 126.049 80.1976 126.1 80.4143 126.1C80.6288 126.1 80.8129 126.05 80.9668 125.951C81.1228 125.851 81.2224 125.707 81.2658 125.518H81.8345C81.7934 125.746 81.7024 125.938 81.5615 126.094C81.4207 126.25 81.2506 126.368 81.0513 126.448C80.8519 126.526 80.6439 126.565 80.4273 126.565C80.1131 126.565 79.8369 126.497 79.5985 126.36C79.3602 126.224 79.1739 126.028 79.0395 125.772C78.9052 125.516 78.838 125.21 78.838 124.852C78.838 124.499 78.8987 124.189 79.02 123.923C79.1414 123.656 79.3169 123.448 79.5465 123.299C79.7784 123.149 80.0568 123.074 80.3818 123.074C80.6981 123.074 80.9657 123.143 81.1845 123.279C81.4034 123.416 81.5691 123.609 81.6818 123.858C81.7966 124.105 81.854 124.398 81.854 124.738V124.959H79.4458ZM79.449 124.553H81.2755C81.2755 124.36 81.243 124.187 81.178 124.033C81.113 123.877 81.0134 123.755 80.879 123.666C80.7469 123.575 80.58 123.529 80.3785 123.529C80.1684 123.529 79.9939 123.58 79.8553 123.682C79.7188 123.782 79.6159 123.911 79.5465 124.069C79.4794 124.225 79.4469 124.386 79.449 124.553ZM83.1084 124.959C83.1084 125.172 83.143 125.365 83.2124 125.538C83.2839 125.709 83.3911 125.846 83.5341 125.947C83.6793 126.049 83.8602 126.1 84.0769 126.1C84.2914 126.1 84.4755 126.05 84.6294 125.951C84.7854 125.851 84.885 125.707 84.9284 125.518H85.4971C85.456 125.746 85.365 125.938 85.2241 126.094C85.0833 126.25 84.9132 126.368 84.7139 126.448C84.5145 126.526 84.3065 126.565 84.0899 126.565C83.7757 126.565 83.4995 126.497 83.2611 126.36C83.0228 126.224 82.8365 126.028 82.7021 125.772C82.5678 125.516 82.5006 125.21 82.5006 124.852C82.5006 124.499 82.5613 124.189 82.6826 123.923C82.804 123.656 82.9795 123.448 83.2091 123.299C83.441 123.149 83.7194 123.074 84.0444 123.074C84.3607 123.074 84.6283 123.143 84.8471 123.279C85.066 123.416 85.2317 123.609 85.3444 123.858C85.4592 124.105 85.5166 124.398 85.5166 124.738V124.959H83.1084ZM83.1116 124.553H84.9381C84.9381 124.36 84.9056 124.187 84.8406 124.033C84.7756 123.877 84.676 123.755 84.5416 123.666C84.4095 123.575 84.2426 123.529 84.0411 123.529C83.831 123.529 83.6565 123.58 83.5179 123.682C83.3814 123.782 83.2785 123.911 83.2091 124.069C83.142 124.225 83.1095 124.386 83.1116 124.553ZM86.342 126.5V123.139H86.9237V123.627C86.9779 123.534 87.0526 123.446 87.148 123.364C87.2455 123.281 87.3625 123.215 87.499 123.165C87.6376 123.116 87.7969 123.091 87.9767 123.091C88.1891 123.091 88.3841 123.133 88.5617 123.218C88.7416 123.302 88.8846 123.434 88.9907 123.614C89.0991 123.792 89.1532 124.021 89.1532 124.303V126.5H88.552V124.361C88.552 124.099 88.4826 123.905 88.344 123.78C88.2075 123.652 88.0298 123.588 87.811 123.588C87.6593 123.588 87.5174 123.613 87.3852 123.663C87.2531 123.71 87.1458 123.784 87.0635 123.884C86.9811 123.981 86.94 124.105 86.94 124.254V126.5H86.342ZM91.5915 127.547V123.139H92.1895L92.196 123.724C92.235 123.655 92.2848 123.583 92.3455 123.507C92.4083 123.431 92.4842 123.36 92.573 123.295C92.664 123.23 92.7691 123.177 92.8882 123.136C93.0096 123.095 93.1472 123.074 93.301 123.074C93.5697 123.074 93.8058 123.136 94.0095 123.26C94.2153 123.381 94.3757 123.567 94.4905 123.819C94.6053 124.07 94.6627 124.389 94.6627 124.774C94.6627 125.16 94.6064 125.486 94.4937 125.752C94.3832 126.017 94.2229 126.218 94.0127 126.357C93.8026 126.496 93.5491 126.565 93.2522 126.565C93.1027 126.565 92.9695 126.543 92.8525 126.5C92.7377 126.459 92.6369 126.405 92.5502 126.337C92.4657 126.268 92.3942 126.194 92.3357 126.116C92.2794 126.038 92.2328 125.964 92.196 125.892V127.547H91.5915ZM93.1385 126.097C93.4158 126.097 93.6422 125.992 93.8177 125.782C93.9932 125.569 94.081 125.24 94.081 124.794C94.081 124.41 94.0008 124.106 93.8405 123.88C93.6802 123.655 93.4462 123.542 93.1385 123.542C92.8265 123.542 92.5903 123.658 92.43 123.89C92.2697 124.12 92.1895 124.421 92.1895 124.794C92.1895 125.034 92.2252 125.253 92.2967 125.45C92.3682 125.647 92.4744 125.804 92.6152 125.921C92.7561 126.038 92.9305 126.097 93.1385 126.097ZM95.4509 126.5V123.139H96.0229V123.786C96.0792 123.626 96.1583 123.494 96.2601 123.39C96.3619 123.284 96.4779 123.204 96.6079 123.152C96.74 123.1 96.8765 123.074 97.0174 123.074C97.0672 123.074 97.1159 123.078 97.1636 123.084C97.2113 123.091 97.2481 123.102 97.2741 123.117V123.698C97.2416 123.683 97.1994 123.674 97.1474 123.669C97.0975 123.663 97.0553 123.659 97.0206 123.659C96.8863 123.651 96.7606 123.659 96.6436 123.685C96.5266 123.709 96.4237 123.752 96.3349 123.812C96.246 123.873 96.1756 123.953 96.1236 124.053C96.0738 124.15 96.0489 124.269 96.0489 124.41V126.5H95.4509ZM99.2305 126.565C98.9206 126.565 98.6498 126.499 98.418 126.367C98.1861 126.232 98.0063 126.036 97.8785 125.778C97.7506 125.521 97.6867 125.205 97.6867 124.833C97.6867 124.482 97.7463 124.174 97.8655 123.91C97.9846 123.645 98.159 123.441 98.3887 123.295C98.6205 123.148 98.9011 123.074 99.2305 123.074C99.5403 123.074 99.809 123.143 100.036 123.279C100.266 123.414 100.444 123.612 100.569 123.874C100.695 124.136 100.758 124.456 100.758 124.833C100.758 125.175 100.699 125.476 100.582 125.736C100.468 125.996 100.296 126.2 100.069 126.347C99.8436 126.492 99.5641 126.565 99.2305 126.565ZM99.2305 126.09C99.432 126.09 99.602 126.04 99.7407 125.938C99.8794 125.836 99.9845 125.69 100.056 125.499C100.127 125.308 100.163 125.082 100.163 124.82C100.163 124.579 100.132 124.364 100.069 124.173C100.006 123.98 99.9054 123.827 99.7667 123.715C99.6302 123.602 99.4515 123.546 99.2305 123.546C99.0268 123.546 98.8545 123.597 98.7137 123.698C98.5729 123.798 98.4656 123.943 98.392 124.134C98.3205 124.325 98.2847 124.553 98.2847 124.82C98.2847 125.056 98.3172 125.27 98.3822 125.463C98.4472 125.656 98.549 125.809 98.6877 125.921C98.8264 126.034 99.0073 126.09 99.2305 126.09ZM102.884 123.074C103.124 123.074 103.341 123.121 103.534 123.214C103.726 123.305 103.884 123.435 104.005 123.604C104.128 123.773 104.205 123.973 104.236 124.202H103.703C103.683 124.085 103.638 123.978 103.566 123.88C103.497 123.783 103.405 123.705 103.29 123.646C103.175 123.588 103.041 123.559 102.887 123.559C102.599 123.559 102.365 123.663 102.185 123.871C102.005 124.079 101.915 124.397 101.915 124.826C101.915 125.214 101.997 125.525 102.162 125.759C102.329 125.991 102.574 126.107 102.897 126.107C103.05 126.107 103.184 126.077 103.296 126.019C103.411 125.958 103.503 125.879 103.573 125.782C103.642 125.682 103.686 125.576 103.706 125.463H104.229C104.201 125.689 104.125 125.884 104.002 126.048C103.878 126.213 103.72 126.341 103.527 126.432C103.336 126.521 103.122 126.565 102.884 126.565C102.582 126.565 102.315 126.499 102.081 126.367C101.849 126.235 101.667 126.04 101.535 125.782C101.403 125.524 101.337 125.208 101.337 124.833C101.337 124.482 101.396 124.175 101.515 123.913C101.637 123.649 101.812 123.443 102.042 123.295C102.274 123.148 102.554 123.074 102.884 123.074ZM105.478 124.959C105.478 125.172 105.512 125.365 105.582 125.538C105.653 125.709 105.76 125.846 105.903 125.947C106.048 126.049 106.229 126.1 106.446 126.1C106.661 126.1 106.845 126.05 106.999 125.951C107.155 125.851 107.254 125.707 107.298 125.518H107.866C107.825 125.746 107.734 125.938 107.593 126.094C107.452 126.25 107.282 126.368 107.083 126.448C106.884 126.526 106.676 126.565 106.459 126.565C106.145 126.565 105.869 126.497 105.63 126.36C105.392 126.224 105.206 126.028 105.071 125.772C104.937 125.516 104.87 125.21 104.87 124.852C104.87 124.499 104.93 124.189 105.052 123.923C105.173 123.656 105.349 123.448 105.578 123.299C105.81 123.149 106.089 123.074 106.414 123.074C106.73 123.074 106.997 123.143 107.216 123.279C107.435 123.416 107.601 123.609 107.714 123.858C107.828 124.105 107.886 124.398 107.886 124.738V124.959H105.478ZM105.481 124.553H107.307C107.307 124.36 107.275 124.187 107.21 124.033C107.145 123.877 107.045 123.755 106.911 123.666C106.779 123.575 106.612 123.529 106.41 123.529C106.2 123.529 106.026 123.58 105.887 123.682C105.751 123.782 105.648 123.911 105.578 124.069C105.511 124.225 105.479 124.386 105.481 124.553ZM109.878 126.565C109.644 126.565 109.427 126.529 109.225 126.458C109.026 126.384 108.86 126.27 108.728 126.116C108.596 125.96 108.512 125.762 108.478 125.522H109.024C109.054 125.654 109.108 125.764 109.186 125.853C109.266 125.94 109.366 126.006 109.485 126.051C109.604 126.095 109.734 126.116 109.875 126.116C110.101 126.116 110.283 126.074 110.421 125.99C110.56 125.905 110.629 125.775 110.629 125.6C110.629 125.476 110.592 125.378 110.519 125.304C110.447 125.228 110.336 125.173 110.184 125.138L109.488 124.966C109.218 124.901 109.001 124.799 108.838 124.66C108.676 124.522 108.595 124.328 108.595 124.079C108.593 123.882 108.639 123.708 108.734 123.559C108.83 123.409 108.973 123.291 109.163 123.204C109.354 123.118 109.591 123.074 109.875 123.074C110.239 123.074 110.533 123.157 110.756 123.321C110.981 123.484 111.098 123.723 111.107 124.04H110.577C110.556 123.879 110.483 123.753 110.359 123.659C110.238 123.564 110.075 123.516 109.869 123.516C109.654 123.516 109.48 123.56 109.345 123.646C109.211 123.731 109.144 123.863 109.144 124.043C109.144 124.162 109.192 124.256 109.287 124.326C109.382 124.393 109.523 124.449 109.709 124.495L110.382 124.664C110.538 124.705 110.666 124.759 110.766 124.826C110.868 124.893 110.948 124.968 111.006 125.05C111.067 125.133 111.109 125.219 111.133 125.31C111.159 125.399 111.172 125.485 111.172 125.567C111.172 125.773 111.12 125.951 111.016 126.1C110.914 126.248 110.767 126.362 110.574 126.445C110.383 126.525 110.151 126.565 109.878 126.565ZM113.148 126.565C112.914 126.565 112.696 126.529 112.494 126.458C112.295 126.384 112.129 126.27 111.997 126.116C111.865 125.96 111.781 125.762 111.747 125.522H112.293C112.323 125.654 112.377 125.764 112.455 125.853C112.535 125.94 112.635 126.006 112.754 126.051C112.873 126.095 113.003 126.116 113.144 126.116C113.37 126.116 113.552 126.074 113.69 125.99C113.829 125.905 113.898 125.775 113.898 125.6C113.898 125.476 113.861 125.378 113.788 125.304C113.716 125.228 113.605 125.173 113.453 125.138L112.758 124.966C112.487 124.901 112.27 124.799 112.108 124.66C111.945 124.522 111.864 124.328 111.864 124.079C111.862 123.882 111.908 123.708 112.004 123.559C112.099 123.409 112.242 123.291 112.433 123.204C112.623 123.118 112.86 123.074 113.144 123.074C113.508 123.074 113.802 123.157 114.025 123.321C114.25 123.484 114.367 123.723 114.376 124.04H113.846C113.825 123.879 113.752 123.753 113.629 123.659C113.507 123.564 113.344 123.516 113.138 123.516C112.923 123.516 112.749 123.56 112.615 123.646C112.48 123.731 112.413 123.863 112.413 124.043C112.413 124.162 112.461 124.256 112.556 124.326C112.651 124.393 112.792 124.449 112.979 124.495L113.651 124.664C113.807 124.705 113.935 124.759 114.035 124.826C114.137 124.893 114.217 124.968 114.275 125.05C114.336 125.133 114.378 125.219 114.402 125.31C114.428 125.399 114.441 125.485 114.441 125.567C114.441 125.773 114.389 125.951 114.285 126.1C114.183 126.248 114.036 126.362 113.843 126.445C113.652 126.525 113.421 126.565 113.148 126.565ZM115.71 124.959C115.71 125.172 115.745 125.365 115.814 125.538C115.885 125.709 115.993 125.846 116.136 125.947C116.281 126.049 116.462 126.1 116.678 126.1C116.893 126.1 117.077 126.05 117.231 125.951C117.387 125.851 117.487 125.707 117.53 125.518H118.099C118.058 125.746 117.967 125.938 117.826 126.094C117.685 126.25 117.515 126.368 117.315 126.448C117.116 126.526 116.908 126.565 116.691 126.565C116.377 126.565 116.101 126.497 115.863 126.36C115.624 126.224 115.438 126.028 115.304 125.772C115.169 125.516 115.102 125.21 115.102 124.852C115.102 124.499 115.163 124.189 115.284 123.923C115.406 123.656 115.581 123.448 115.811 123.299C116.043 123.149 116.321 123.074 116.646 123.074C116.962 123.074 117.23 123.143 117.449 123.279C117.668 123.416 117.833 123.609 117.946 123.858C118.061 124.105 118.118 124.398 118.118 124.738V124.959H115.71ZM115.713 124.553H117.54C117.54 124.36 117.507 124.187 117.442 124.033C117.377 123.877 117.278 123.755 117.143 123.666C117.011 123.575 116.844 123.529 116.643 123.529C116.433 123.529 116.258 123.58 116.119 123.682C115.983 123.782 115.88 123.911 115.811 124.069C115.744 124.225 115.711 124.386 115.713 124.553ZM120.156 126.565C119.72 126.565 119.375 126.415 119.119 126.116C118.863 125.817 118.736 125.381 118.736 124.807C118.736 124.458 118.786 124.153 118.888 123.893C118.992 123.633 119.146 123.432 119.35 123.289C119.553 123.146 119.807 123.074 120.11 123.074C120.271 123.074 120.413 123.095 120.536 123.136C120.662 123.177 120.77 123.229 120.861 123.292C120.952 123.355 121.026 123.42 121.082 123.487C121.141 123.554 121.184 123.616 121.212 123.672V121.67H121.817V126.5H121.358L121.293 125.811C121.272 125.876 121.237 125.952 121.189 126.038C121.142 126.123 121.074 126.206 120.988 126.289C120.901 126.369 120.79 126.435 120.653 126.487C120.519 126.539 120.353 126.565 120.156 126.565ZM120.263 126.103C120.603 126.103 120.846 126.001 120.991 125.795C121.138 125.587 121.212 125.248 121.212 124.777C121.21 124.515 121.176 124.292 121.111 124.108C121.048 123.924 120.949 123.784 120.812 123.689C120.678 123.591 120.499 123.542 120.276 123.542C119.999 123.542 119.773 123.641 119.6 123.838C119.427 124.035 119.34 124.348 119.34 124.777C119.34 125.198 119.418 125.524 119.574 125.756C119.732 125.988 119.962 126.103 120.263 126.103ZM122.67 126.5V125.733H123.385V126.5H122.67ZM22.1495 130.353V129.8H25.705V130.353H24.2718V134.5H23.6673V130.353H22.1495ZM26.3566 134.5V129.67H26.9416V131.633C26.998 131.54 27.0738 131.454 27.1691 131.373C27.2645 131.291 27.3804 131.225 27.5169 131.175C27.6534 131.123 27.8115 131.097 27.9914 131.097C28.2102 131.097 28.4085 131.138 28.5861 131.221C28.7638 131.301 28.9046 131.416 29.0086 131.565C29.1126 131.715 29.1646 131.892 29.1646 132.098V134.5H28.5634V132.218C28.5634 132.017 28.494 131.862 28.3554 131.754C28.2189 131.643 28.0401 131.588 27.8191 131.588C27.6696 131.588 27.5288 131.613 27.3966 131.663C27.2645 131.71 27.1572 131.784 27.0749 131.884C26.9947 131.981 26.9546 132.106 26.9546 132.257V134.5H26.3566ZM30.5307 132.959C30.5307 133.172 30.5654 133.365 30.6347 133.538C30.7062 133.709 30.8135 133.846 30.9565 133.947C31.1017 134.049 31.2826 134.1 31.4992 134.1C31.7137 134.1 31.8979 134.05 32.0517 133.951C32.2077 133.851 32.3074 133.707 32.3507 133.518H32.9195C32.8783 133.746 32.7873 133.938 32.6465 134.094C32.5057 134.25 32.3356 134.368 32.1362 134.448C31.9369 134.526 31.7289 134.565 31.5122 134.565C31.1981 134.565 30.9218 134.497 30.6835 134.36C30.4452 134.224 30.2588 134.028 30.1245 133.772C29.9902 133.516 29.923 133.21 29.923 132.852C29.923 132.499 29.9837 132.189 30.105 131.923C30.2263 131.656 30.4018 131.448 30.6315 131.299C30.8633 131.149 31.1417 131.074 31.4667 131.074C31.7831 131.074 32.0507 131.143 32.2695 131.279C32.4883 131.416 32.6541 131.609 32.7667 131.858C32.8816 132.105 32.939 132.398 32.939 132.738V132.959H30.5307ZM30.534 132.553H32.3605C32.3605 132.36 32.328 132.187 32.263 132.033C32.198 131.877 32.0983 131.755 31.964 131.666C31.8318 131.575 31.665 131.529 31.4635 131.529C31.2533 131.529 31.0789 131.58 30.9402 131.682C30.8037 131.782 30.7008 131.911 30.6315 132.069C30.5643 132.225 30.5318 132.386 30.534 132.553ZM36.9253 131.578H36.168V133.668C36.168 133.787 36.1799 133.875 36.2038 133.931C36.2298 133.985 36.272 134.02 36.3305 134.035C36.3912 134.05 36.4735 134.058 36.5775 134.058H36.9448V134.461C36.9036 134.476 36.8408 134.489 36.7563 134.5C36.6739 134.511 36.571 134.516 36.4475 134.516C36.2157 134.516 36.0359 134.485 35.908 134.422C35.7802 134.359 35.6903 134.266 35.6383 134.142C35.5884 134.019 35.5635 133.867 35.5635 133.688V131.578H35.0175V131.139H35.5798L35.726 130.161H36.168V131.136H36.9253V131.578ZM39.0356 134.565C38.7258 134.565 38.455 134.499 38.2231 134.367C37.9913 134.232 37.8115 134.036 37.6836 133.778C37.5558 133.521 37.4919 133.205 37.4919 132.833C37.4919 132.482 37.5515 132.174 37.6706 131.91C37.7898 131.645 37.9642 131.441 38.1939 131.295C38.4257 131.148 38.7063 131.074 39.0356 131.074C39.3455 131.074 39.6141 131.143 39.8416 131.279C40.0713 131.414 40.249 131.612 40.3746 131.874C40.5003 132.136 40.5631 132.456 40.5631 132.833C40.5631 133.175 40.5046 133.476 40.3876 133.736C40.2728 133.996 40.1016 134.2 39.8741 134.347C39.6488 134.492 39.3693 134.565 39.0356 134.565ZM39.0356 134.09C39.2371 134.09 39.4072 134.04 39.5459 133.938C39.6846 133.836 39.7896 133.69 39.8611 133.499C39.9326 133.308 39.9684 133.082 39.9684 132.82C39.9684 132.579 39.937 132.364 39.8741 132.173C39.8113 131.98 39.7106 131.827 39.5719 131.715C39.4354 131.602 39.2566 131.546 39.0356 131.546C38.832 131.546 38.6597 131.597 38.5189 131.698C38.3781 131.798 38.2708 131.943 38.1971 132.134C38.1256 132.325 38.0899 132.553 38.0899 132.82C38.0899 133.056 38.1224 133.27 38.1874 133.463C38.2524 133.656 38.3542 133.809 38.4929 133.921C38.6316 134.034 38.8125 134.09 39.0356 134.09ZM42.9492 131.578H42.1919V133.668C42.1919 133.787 42.2039 133.875 42.2277 133.931C42.2537 133.985 42.2959 134.02 42.3544 134.035C42.4151 134.05 42.4974 134.058 42.6014 134.058H42.9687V134.461C42.9275 134.476 42.8647 134.489 42.7802 134.5C42.6979 134.511 42.5949 134.516 42.4714 134.516C42.2396 134.516 42.0598 134.485 41.9319 134.422C41.8041 134.359 41.7142 134.266 41.6622 134.142C41.6124 134.019 41.5874 133.867 41.5874 133.688V131.578H41.0414V131.139H41.6037L41.7499 130.161H42.1919V131.136H42.9492V131.578ZM44.7168 134.565C44.5001 134.565 44.3084 134.527 44.1415 134.451C43.9747 134.373 43.8436 134.262 43.7483 134.116C43.6551 133.971 43.6085 133.796 43.6085 133.59C43.6085 133.217 43.7385 132.94 43.9985 132.758C44.2585 132.576 44.6756 132.478 45.2498 132.465L45.851 132.449V132.186C45.851 131.98 45.7893 131.818 45.6658 131.698C45.5423 131.577 45.3505 131.516 45.0905 131.516C44.8977 131.519 44.7276 131.564 44.5803 131.653C44.4351 131.742 44.3409 131.887 44.2975 132.088H43.7678C43.7808 131.87 43.8425 131.685 43.953 131.536C44.0635 131.384 44.2174 131.269 44.4145 131.191C44.6139 131.113 44.849 131.074 45.1198 131.074C45.4123 131.074 45.655 131.116 45.8478 131.198C46.0428 131.28 46.188 131.402 46.2833 131.562C46.3808 131.722 46.4295 131.919 46.4295 132.153V134.5H45.916L45.8738 133.869C45.7438 134.132 45.578 134.314 45.3765 134.415C45.1772 134.515 44.9573 134.565 44.7168 134.565ZM44.8988 134.133C45.0115 134.133 45.123 134.112 45.2335 134.071C45.3462 134.03 45.4491 133.975 45.5423 133.905C45.6355 133.834 45.7091 133.755 45.7633 133.668C45.8196 133.579 45.8489 133.488 45.851 133.395V132.82L45.3505 132.83C45.0949 132.834 44.8804 132.86 44.707 132.907C44.5359 132.955 44.407 133.03 44.3203 133.132C44.2358 133.234 44.1935 133.367 44.1935 133.531C44.1935 133.72 44.2585 133.867 44.3885 133.973C44.5207 134.08 44.6908 134.133 44.8988 134.133ZM48.3045 134.542C48.1225 134.542 47.9752 134.517 47.8625 134.467C47.752 134.418 47.6664 134.35 47.6057 134.266C47.5472 134.181 47.5072 134.085 47.4855 133.977C47.466 133.866 47.4562 133.752 47.4562 133.635V129.67H48.0477V133.577C48.0477 133.746 48.0802 133.873 48.1452 133.957C48.2124 134.042 48.3056 134.088 48.4247 134.097L48.6067 134.1V134.49C48.5569 134.505 48.5049 134.517 48.4507 134.526C48.3966 134.537 48.3478 134.542 48.3045 134.542ZM51.8198 134.565C51.6031 134.565 51.4114 134.527 51.2446 134.451C51.0777 134.373 50.9466 134.262 50.8513 134.116C50.7581 133.971 50.7116 133.796 50.7116 133.59C50.7116 133.217 50.8416 132.94 51.1016 132.758C51.3616 132.576 51.7786 132.478 52.3528 132.465L52.9541 132.449V132.186C52.9541 131.98 52.8923 131.818 52.7688 131.698C52.6453 131.577 52.4536 131.516 52.1936 131.516C52.0007 131.519 51.8306 131.564 51.6833 131.653C51.5381 131.742 51.4439 131.887 51.4006 132.088H50.8708C50.8838 131.87 50.9456 131.685 51.0561 131.536C51.1666 131.384 51.3204 131.269 51.5176 131.191C51.7169 131.113 51.952 131.074 52.2228 131.074C52.5153 131.074 52.758 131.116 52.9508 131.198C53.1458 131.28 53.291 131.402 53.3863 131.562C53.4838 131.722 53.5326 131.919 53.5326 132.153V134.5H53.0191L52.9768 133.869C52.8468 134.132 52.6811 134.314 52.4796 134.415C52.2802 134.515 52.0603 134.565 51.8198 134.565ZM52.0018 134.133C52.1145 134.133 52.2261 134.112 52.3366 134.071C52.4492 134.03 52.5521 133.975 52.6453 133.905C52.7385 133.834 52.8121 133.755 52.8663 133.668C52.9226 133.579 52.9519 133.488 52.9541 133.395V132.82L52.4536 132.83C52.1979 132.834 51.9834 132.86 51.8101 132.907C51.6389 132.955 51.51 133.03 51.4233 133.132C51.3388 133.234 51.2966 133.367 51.2966 133.531C51.2966 133.72 51.3616 133.867 51.4916 133.973C51.6237 134.08 51.7938 134.133 52.0018 134.133ZM54.5593 134.5V131.139H55.1378V131.627C55.2309 131.48 55.3588 131.351 55.5213 131.24C55.6838 131.13 55.895 131.074 56.155 131.074C56.2763 131.074 56.3998 131.095 56.5255 131.136C56.6533 131.177 56.7703 131.239 56.8765 131.321C56.9827 131.404 57.065 131.505 57.1235 131.624C57.2275 131.459 57.3683 131.327 57.546 131.227C57.7237 131.125 57.9241 131.074 58.1473 131.074C58.2643 131.074 58.3867 131.093 58.5145 131.13C58.6423 131.164 58.7604 131.227 58.8688 131.318C58.9793 131.407 59.0692 131.532 59.1385 131.692C59.2078 131.85 59.2425 132.054 59.2425 132.303V134.5H58.638V132.361C58.638 132.158 58.6055 132.001 58.5405 131.89C58.4755 131.778 58.3899 131.698 58.2838 131.653C58.1798 131.607 58.0682 131.585 57.949 131.585C57.845 131.585 57.7345 131.605 57.6175 131.646C57.5005 131.688 57.4008 131.757 57.3185 131.854C57.2362 131.952 57.195 132.085 57.195 132.254V134.5H56.597V132.186C56.597 132.054 56.5613 131.943 56.4898 131.854C56.4204 131.766 56.3327 131.698 56.2265 131.653C56.1225 131.607 56.0185 131.585 55.9145 131.585C55.7997 131.585 55.6838 131.607 55.5668 131.653C55.4519 131.698 55.3544 131.771 55.2743 131.871C55.1963 131.968 55.1573 132.096 55.1573 132.254V134.5H54.5593ZM61.519 134.565C61.2092 134.565 60.9384 134.499 60.7065 134.367C60.4747 134.232 60.2949 134.036 60.167 133.778C60.0392 133.521 59.9753 133.205 59.9753 132.833C59.9753 132.482 60.0349 132.174 60.154 131.91C60.2732 131.645 60.4476 131.441 60.6773 131.295C60.9091 131.148 61.1897 131.074 61.519 131.074C61.8289 131.074 62.0975 131.143 62.325 131.279C62.5547 131.414 62.7324 131.612 62.858 131.874C62.9837 132.136 63.0465 132.456 63.0465 132.833C63.0465 133.175 62.988 133.476 62.871 133.736C62.7562 133.996 62.585 134.2 62.3575 134.347C62.1322 134.492 61.8527 134.565 61.519 134.565ZM61.519 134.09C61.7205 134.09 61.8906 134.04 62.0293 133.938C62.168 133.836 62.273 133.69 62.3445 133.499C62.416 133.308 62.4518 133.082 62.4518 132.82C62.4518 132.579 62.4204 132.364 62.3575 132.173C62.2947 131.98 62.194 131.827 62.0553 131.715C61.9188 131.602 61.74 131.546 61.519 131.546C61.3154 131.546 61.1431 131.597 61.0023 131.698C60.8615 131.798 60.7542 131.943 60.6805 132.134C60.609 132.325 60.5733 132.553 60.5733 132.82C60.5733 133.056 60.6058 133.27 60.6708 133.463C60.7358 133.656 60.8376 133.809 60.9763 133.921C61.115 134.034 61.2959 134.09 61.519 134.09ZM65.0111 134.565C64.8356 134.563 64.6698 134.538 64.5138 134.49C64.36 134.44 64.2235 134.368 64.1043 134.272C63.9851 134.177 63.8909 134.059 63.8216 133.918C63.7544 133.775 63.7208 133.609 63.7208 133.421V131.139H64.3221V133.359C64.3221 133.578 64.3892 133.756 64.5236 133.892C64.6601 134.029 64.8648 134.097 65.1378 134.097C65.3848 134.097 65.5831 134.033 65.7326 133.905C65.8842 133.775 65.9601 133.582 65.9601 133.327V131.139H66.5581V134.5H66.0803L66.0186 133.856C65.9774 134.025 65.907 134.162 65.8073 134.266C65.7098 134.37 65.5917 134.447 65.4531 134.497C65.3166 134.544 65.1692 134.567 65.0111 134.565ZM67.5402 134.5V131.139H68.122V131.627C68.1761 131.534 68.2509 131.446 68.3462 131.364C68.4437 131.281 68.5607 131.215 68.6972 131.165C68.8359 131.116 68.9951 131.091 69.175 131.091C69.3873 131.091 69.5823 131.133 69.76 131.218C69.9398 131.302 70.0828 131.434 70.189 131.614C70.2973 131.792 70.3515 132.021 70.3515 132.303V134.5H69.7502V132.361C69.7502 132.099 69.6809 131.905 69.5422 131.78C69.4057 131.652 69.2281 131.588 69.0092 131.588C68.8576 131.588 68.7156 131.613 68.5835 131.663C68.4513 131.71 68.3441 131.784 68.2617 131.884C68.1794 131.981 68.1382 132.105 68.1382 132.254V134.5H67.5402ZM72.8403 131.578H72.0831V133.668C72.0831 133.787 72.095 133.875 72.1188 133.931C72.1448 133.985 72.1871 134.02 72.2456 134.035C72.3062 134.05 72.3886 134.058 72.4926 134.058H72.8598V134.461C72.8186 134.476 72.7558 134.489 72.6713 134.5C72.589 134.511 72.4861 134.516 72.3626 134.516C72.1307 134.516 71.9509 134.485 71.8231 134.422C71.6952 134.359 71.6053 134.266 71.5533 134.142C71.5035 134.019 71.4786 133.867 71.4786 133.688V131.578H70.9326V131.139H71.4948L71.6411 130.161H72.0831V131.136H72.8403V131.578ZM76.3316 134.565C75.8961 134.565 75.5505 134.415 75.2948 134.116C75.0392 133.817 74.9113 133.381 74.9113 132.807C74.9113 132.458 74.9622 132.153 75.0641 131.893C75.1681 131.633 75.3219 131.432 75.5256 131.289C75.7292 131.146 75.9827 131.074 76.2861 131.074C76.4464 131.074 76.5883 131.095 76.7118 131.136C76.8375 131.177 76.9458 131.229 77.0368 131.292C77.1278 131.355 77.2015 131.42 77.2578 131.487C77.3163 131.554 77.3597 131.616 77.3878 131.672V129.67H77.9923V134.5H77.5341L77.4691 133.811C77.4474 133.876 77.4127 133.952 77.3651 134.038C77.3174 134.123 77.2502 134.206 77.1636 134.289C77.0769 134.369 76.9653 134.435 76.8288 134.487C76.6945 134.539 76.5287 134.565 76.3316 134.565ZM76.4388 134.103C76.779 134.103 77.0217 134.001 77.1668 133.795C77.3142 133.587 77.3878 133.248 77.3878 132.777C77.3857 132.515 77.3521 132.292 77.2871 132.108C77.2242 131.924 77.1246 131.784 76.9881 131.689C76.8537 131.591 76.675 131.542 76.4518 131.542C76.1745 131.542 75.9492 131.641 75.7758 131.838C75.6025 132.035 75.5158 132.348 75.5158 132.777C75.5158 133.198 75.5938 133.524 75.7498 133.756C75.908 133.988 76.1377 134.103 76.4388 134.103ZM79.414 132.959C79.414 133.172 79.4487 133.365 79.518 133.538C79.5895 133.709 79.6968 133.846 79.8398 133.947C79.985 134.049 80.1659 134.1 80.3825 134.1C80.597 134.1 80.7812 134.05 80.935 133.951C81.091 133.851 81.1907 133.707 81.234 133.518H81.8028C81.7616 133.746 81.6706 133.938 81.5298 134.094C81.389 134.25 81.2189 134.368 81.0195 134.448C80.8202 134.526 80.6122 134.565 80.3955 134.565C80.0814 134.565 79.8051 134.497 79.5668 134.36C79.3285 134.224 79.1421 134.028 79.0078 133.772C78.8735 133.516 78.8063 133.21 78.8063 132.852C78.8063 132.499 78.867 132.189 78.9883 131.923C79.1096 131.656 79.2851 131.448 79.5148 131.299C79.7466 131.149 80.025 131.074 80.35 131.074C80.6664 131.074 80.934 131.143 81.1528 131.279C81.3716 131.416 81.5374 131.609 81.65 131.858C81.7649 132.105 81.8223 132.398 81.8223 132.738V132.959H79.414ZM79.4173 132.553H81.2438C81.2438 132.36 81.2113 132.187 81.1463 132.033C81.0813 131.877 80.9816 131.755 80.8473 131.666C80.7151 131.575 80.5483 131.529 80.3468 131.529C80.1366 131.529 79.9622 131.58 79.8235 131.682C79.687 131.782 79.5841 131.911 79.5148 132.069C79.4476 132.225 79.4151 132.386 79.4173 132.553ZM83.8599 134.565C83.4244 134.565 83.0788 134.415 82.8231 134.116C82.5675 133.817 82.4396 133.381 82.4396 132.807C82.4396 132.458 82.4906 132.153 82.5924 131.893C82.6964 131.633 82.8502 131.432 83.0539 131.289C83.2576 131.146 83.5111 131.074 83.8144 131.074C83.9747 131.074 84.1166 131.095 84.2401 131.136C84.3658 131.177 84.4741 131.229 84.5651 131.292C84.6561 131.355 84.7298 131.42 84.7861 131.487C84.8446 131.554 84.888 131.616 84.9161 131.672V129.67H85.5206V134.5H85.0624L84.9974 133.811C84.9757 133.876 84.9411 133.952 84.8934 134.038C84.8457 134.123 84.7786 134.206 84.6919 134.289C84.6052 134.369 84.4936 134.435 84.3571 134.487C84.2228 134.539 84.0571 134.565 83.8599 134.565ZM83.9671 134.103C84.3073 134.103 84.55 134.001 84.6951 133.795C84.8425 133.587 84.9161 133.248 84.9161 132.777C84.914 132.515 84.8804 132.292 84.8154 132.108C84.7526 131.924 84.6529 131.784 84.5164 131.689C84.3821 131.591 84.2033 131.542 83.9801 131.542C83.7028 131.542 83.4775 131.641 83.3041 131.838C83.1308 132.035 83.0441 132.348 83.0441 132.777C83.0441 133.198 83.1221 133.524 83.2781 133.756C83.4363 133.988 83.666 134.103 83.9671 134.103ZM87.7484 134.565C87.5729 134.563 87.4071 134.538 87.2511 134.49C87.0973 134.44 86.9608 134.368 86.8416 134.272C86.7224 134.177 86.6282 134.059 86.5589 133.918C86.4917 133.775 86.4581 133.609 86.4581 133.421V131.139H87.0594V133.359C87.0594 133.578 87.1265 133.756 87.2609 133.892C87.3974 134.029 87.6021 134.097 87.8751 134.097C88.1221 134.097 88.3204 134.033 88.4699 133.905C88.6215 133.775 88.6974 133.582 88.6974 133.327V131.139H89.2954V134.5H88.8176L88.7559 133.856C88.7147 134.025 88.6443 134.162 88.5446 134.266C88.4471 134.37 88.329 134.447 88.1904 134.497C88.0539 134.544 87.9065 134.567 87.7484 134.565ZM91.5721 131.074C91.8126 131.074 92.0293 131.121 92.2221 131.214C92.4149 131.305 92.572 131.435 92.6933 131.604C92.8168 131.773 92.8938 131.973 92.9241 132.202H92.3911C92.3716 132.085 92.3261 131.978 92.2546 131.88C92.1853 131.783 92.0932 131.705 91.9783 131.646C91.8635 131.588 91.7292 131.559 91.5753 131.559C91.2872 131.559 91.0532 131.663 90.8733 131.871C90.6935 132.079 90.6036 132.397 90.6036 132.826C90.6036 133.214 90.6859 133.525 90.8506 133.759C91.0174 133.991 91.2623 134.107 91.5851 134.107C91.7389 134.107 91.8722 134.077 91.9848 134.019C92.0997 133.958 92.1918 133.879 92.2611 133.782C92.3304 133.682 92.3748 133.576 92.3943 133.463H92.9176C92.8894 133.689 92.8136 133.884 92.6901 134.048C92.5666 134.213 92.4084 134.341 92.2156 134.432C92.0249 134.521 91.8104 134.565 91.5721 134.565C91.2709 134.565 91.0033 134.499 90.7693 134.367C90.5375 134.235 90.3555 134.04 90.2233 133.782C90.0912 133.524 90.0251 133.208 90.0251 132.833C90.0251 132.482 90.0847 132.175 90.2038 131.913C90.3252 131.649 90.5007 131.443 90.7303 131.295C90.9622 131.148 91.2428 131.074 91.5721 131.074ZM95.3364 131.578H94.5792V133.668C94.5792 133.787 94.5911 133.875 94.6149 133.931C94.6409 133.985 94.6832 134.02 94.7417 134.035C94.8023 134.05 94.8847 134.058 94.9887 134.058H95.3559V134.461C95.3147 134.476 95.2519 134.489 95.1674 134.5C95.0851 134.511 94.9822 134.516 94.8587 134.516C94.6268 134.516 94.447 134.485 94.3192 134.422C94.1913 134.359 94.1014 134.266 94.0494 134.142C93.9996 134.019 93.9747 133.867 93.9747 133.688V131.578H93.4287V131.139H93.9909L94.1372 130.161H94.5792V131.136H95.3364V131.578ZM96.54 132.959C96.54 133.172 96.5747 133.365 96.644 133.538C96.7155 133.709 96.8228 133.846 96.9658 133.947C97.1109 134.049 97.2919 134.1 97.5085 134.1C97.723 134.1 97.9072 134.05 98.061 133.951C98.217 133.851 98.3167 133.707 98.36 133.518H98.9288C98.8876 133.746 98.7966 133.938 98.6558 134.094C98.5149 134.25 98.3449 134.368 98.1455 134.448C97.9462 134.526 97.7382 134.565 97.5215 134.565C97.2074 134.565 96.9311 134.497 96.6928 134.36C96.4544 134.224 96.2681 134.028 96.1338 133.772C95.9994 133.516 95.9323 133.21 95.9323 132.852C95.9323 132.499 95.9929 132.189 96.1143 131.923C96.2356 131.656 96.4111 131.448 96.6408 131.299C96.8726 131.149 97.151 131.074 97.476 131.074C97.7924 131.074 98.0599 131.143 98.2788 131.279C98.4976 131.416 98.6634 131.609 98.776 131.858C98.8909 132.105 98.9483 132.398 98.9483 132.738V132.959H96.54ZM96.5433 132.553H98.3698C98.3698 132.36 98.3373 132.187 98.2723 132.033C98.2073 131.877 98.1076 131.755 97.9733 131.666C97.8411 131.575 97.6743 131.529 97.4728 131.529C97.2626 131.529 97.0882 131.58 96.9495 131.682C96.813 131.782 96.7101 131.911 96.6408 132.069C96.5736 132.225 96.5411 132.386 96.5433 132.553ZM100.986 134.565C100.55 134.565 100.205 134.415 99.9491 134.116C99.6935 133.817 99.5656 133.381 99.5656 132.807C99.5656 132.458 99.6165 132.153 99.7184 131.893C99.8224 131.633 99.9762 131.432 100.18 131.289C100.384 131.146 100.637 131.074 100.94 131.074C101.101 131.074 101.243 131.095 101.366 131.136C101.492 131.177 101.6 131.229 101.691 131.292C101.782 131.355 101.856 131.42 101.912 131.487C101.971 131.554 102.014 131.616 102.042 131.672V129.67H102.647V134.5H102.188L102.123 133.811C102.102 133.876 102.067 133.952 102.019 134.038C101.972 134.123 101.905 134.206 101.818 134.289C101.731 134.369 101.62 134.435 101.483 134.487C101.349 134.539 101.183 134.565 100.986 134.565ZM101.093 134.103C101.433 134.103 101.676 134.001 101.821 133.795C101.968 133.587 102.042 133.248 102.042 132.777C102.04 132.515 102.006 132.292 101.941 132.108C101.879 131.924 101.779 131.784 101.642 131.689C101.508 131.591 101.329 131.542 101.106 131.542C100.829 131.542 100.603 131.641 100.43 131.838C100.257 132.035 100.17 132.348 100.17 132.777C100.17 133.198 100.248 133.524 100.404 133.756C100.562 133.988 100.792 134.103 101.093 134.103ZM107.035 131.139V131.578H106.22V134.5H105.615V131.578H104.907V131.139H105.615V130.619C105.615 130.353 105.683 130.15 105.82 130.012C105.956 129.871 106.16 129.8 106.431 129.8H107.065L107.068 130.226H106.564C106.428 130.226 106.334 130.263 106.285 130.337C106.235 130.41 106.21 130.522 106.21 130.671V131.139H107.035ZM107.778 134.5V131.139H108.35V131.786C108.406 131.626 108.485 131.494 108.587 131.39C108.689 131.284 108.805 131.204 108.935 131.152C109.067 131.1 109.204 131.074 109.345 131.074C109.394 131.074 109.443 131.078 109.491 131.084C109.538 131.091 109.575 131.102 109.601 131.117V131.698C109.569 131.683 109.527 131.674 109.475 131.669C109.425 131.663 109.382 131.659 109.348 131.659C109.213 131.651 109.088 131.659 108.971 131.685C108.854 131.709 108.751 131.752 108.662 131.812C108.573 131.873 108.503 131.953 108.451 132.053C108.401 132.15 108.376 132.269 108.376 132.41V134.5H107.778ZM111.558 134.565C111.248 134.565 110.977 134.499 110.745 134.367C110.513 134.232 110.333 134.036 110.206 133.778C110.078 133.521 110.014 133.205 110.014 132.833C110.014 132.482 110.073 132.174 110.193 131.91C110.312 131.645 110.486 131.441 110.716 131.295C110.948 131.148 111.228 131.074 111.558 131.074C111.867 131.074 112.136 131.143 112.364 131.279C112.593 131.414 112.771 131.612 112.897 131.874C113.022 132.136 113.085 132.456 113.085 132.833C113.085 133.175 113.027 133.476 112.91 133.736C112.795 133.996 112.624 134.2 112.396 134.347C112.171 134.492 111.891 134.565 111.558 134.565ZM111.558 134.09C111.759 134.09 111.929 134.04 112.068 133.938C112.207 133.836 112.312 133.69 112.383 133.499C112.455 133.308 112.49 133.082 112.49 132.82C112.49 132.579 112.459 132.364 112.396 132.173C112.333 131.98 112.233 131.827 112.094 131.715C111.957 131.602 111.779 131.546 111.558 131.546C111.354 131.546 111.182 131.597 111.041 131.698C110.9 131.798 110.793 131.943 110.719 132.134C110.648 132.325 110.612 132.553 110.612 132.82C110.612 133.056 110.644 133.27 110.709 133.463C110.774 133.656 110.876 133.809 111.015 133.921C111.154 134.034 111.334 134.09 111.558 134.09ZM113.872 134.5V131.139H114.45V131.627C114.543 131.48 114.671 131.351 114.834 131.24C114.996 131.13 115.208 131.074 115.468 131.074C115.589 131.074 115.712 131.095 115.838 131.136C115.966 131.177 116.083 131.239 116.189 131.321C116.295 131.404 116.378 131.505 116.436 131.624C116.54 131.459 116.681 131.327 116.859 131.227C117.036 131.125 117.237 131.074 117.46 131.074C117.577 131.074 117.699 131.093 117.827 131.13C117.955 131.164 118.073 131.227 118.181 131.318C118.292 131.407 118.382 131.532 118.451 131.692C118.52 131.85 118.555 132.054 118.555 132.303V134.5H117.951V132.361C117.951 132.158 117.918 132.001 117.853 131.89C117.788 131.778 117.702 131.698 117.596 131.653C117.492 131.607 117.381 131.585 117.262 131.585C117.158 131.585 117.047 131.605 116.93 131.646C116.813 131.688 116.713 131.757 116.631 131.854C116.549 131.952 116.508 132.085 116.508 132.254V134.5H115.91V132.186C115.91 132.054 115.874 131.943 115.802 131.854C115.733 131.766 115.645 131.698 115.539 131.653C115.435 131.607 115.331 131.585 115.227 131.585C115.112 131.585 114.996 131.607 114.879 131.653C114.764 131.698 114.667 131.771 114.587 131.871C114.509 131.968 114.47 132.096 114.47 132.254V134.5H113.872ZM121.281 135.573C121.084 135.573 120.948 135.558 120.875 135.53C120.801 135.502 120.764 135.488 120.764 135.488V135.098L121.105 135.105C121.231 135.109 121.335 135.1 121.417 135.079C121.5 135.057 121.566 135.028 121.616 134.991C121.665 134.954 121.703 134.913 121.729 134.867C121.758 134.822 121.78 134.778 121.798 134.737L121.915 134.419L120.602 131.139H121.209L122.201 133.733L123.185 131.139H123.774L122.357 134.754C122.27 134.966 122.172 135.132 122.064 135.251C121.958 135.37 121.839 135.453 121.707 135.501C121.577 135.549 121.435 135.573 121.281 135.573ZM125.63 134.565C125.321 134.565 125.05 134.499 124.818 134.367C124.586 134.232 124.406 134.036 124.278 133.778C124.151 133.521 124.087 133.205 124.087 132.833C124.087 132.482 124.146 132.174 124.265 131.91C124.385 131.645 124.559 131.441 124.789 131.295C125.02 131.148 125.301 131.074 125.63 131.074C125.94 131.074 126.209 131.143 126.436 131.279C126.666 131.414 126.844 131.612 126.969 131.874C127.095 132.136 127.158 132.456 127.158 132.833C127.158 133.175 127.099 133.476 126.982 133.736C126.868 133.996 126.696 134.2 126.469 134.347C126.244 134.492 125.964 134.565 125.63 134.565ZM125.63 134.09C125.832 134.09 126.002 134.04 126.141 133.938C126.279 133.836 126.384 133.69 126.456 133.499C126.527 133.308 126.563 133.082 126.563 132.82C126.563 132.579 126.532 132.364 126.469 132.173C126.406 131.98 126.305 131.827 126.167 131.715C126.03 131.602 125.851 131.546 125.63 131.546C125.427 131.546 125.254 131.597 125.114 131.698C124.973 131.798 124.866 131.943 124.792 132.134C124.72 132.325 124.685 132.553 124.685 132.82C124.685 133.056 124.717 133.27 124.782 133.463C124.847 133.656 124.949 133.809 125.088 133.921C125.226 134.034 125.407 134.09 125.63 134.09ZM129.122 134.565C128.947 134.563 128.781 134.538 128.625 134.49C128.471 134.44 128.335 134.368 128.216 134.272C128.096 134.177 128.002 134.059 127.933 133.918C127.866 133.775 127.832 133.609 127.832 133.421V131.139H128.433V133.359C128.433 133.578 128.501 133.756 128.635 133.892C128.771 134.029 128.976 134.097 129.249 134.097C129.496 134.097 129.694 134.033 129.844 133.905C129.996 133.775 130.071 133.582 130.071 133.327V131.139H130.669V134.5H130.192L130.13 133.856C130.089 134.025 130.018 134.162 129.919 134.266C129.821 134.37 129.703 134.447 129.564 134.497C129.428 134.544 129.281 134.567 129.122 134.565ZM131.652 134.5V131.139H132.224V131.786C132.28 131.626 132.359 131.494 132.461 131.39C132.563 131.284 132.679 131.204 132.809 131.152C132.941 131.1 133.077 131.074 133.218 131.074C133.268 131.074 133.317 131.078 133.364 131.084C133.412 131.091 133.449 131.102 133.475 131.117V131.698C133.442 131.683 133.4 131.674 133.348 131.669C133.298 131.663 133.256 131.659 133.221 131.659C133.087 131.651 132.961 131.659 132.844 131.685C132.727 131.709 132.624 131.752 132.536 131.812C132.447 131.873 132.376 131.953 132.324 132.053C132.274 132.15 132.25 132.269 132.25 132.41V134.5H131.652ZM23.4268 143.565C23.2101 143.565 23.0183 143.527 22.8515 143.451C22.6847 143.373 22.5536 143.262 22.4583 143.116C22.3651 142.971 22.3185 142.796 22.3185 142.59C22.3185 142.217 22.4485 141.94 22.7085 141.758C22.9685 141.576 23.3856 141.478 23.9598 141.465L24.561 141.449V141.186C24.561 140.98 24.4993 140.818 24.3758 140.698C24.2523 140.577 24.0605 140.516 23.8005 140.516C23.6077 140.519 23.4376 140.564 23.2903 140.653C23.1451 140.742 23.0508 140.887 23.0075 141.088H22.4777C22.4908 140.87 22.5525 140.685 22.663 140.536C22.7735 140.384 22.9273 140.269 23.1245 140.191C23.3238 140.113 23.5589 140.074 23.8298 140.074C24.1223 140.074 24.3649 140.116 24.5578 140.198C24.7528 140.28 24.8979 140.402 24.9933 140.562C25.0908 140.722 25.1395 140.919 25.1395 141.153V143.5H24.626L24.5838 142.869C24.4538 143.132 24.288 143.314 24.0865 143.415C23.8872 143.515 23.6673 143.565 23.4268 143.565ZM23.6088 143.133C23.7214 143.133 23.833 143.112 23.9435 143.071C24.0562 143.03 24.1591 142.975 24.2523 142.905C24.3454 142.834 24.4191 142.755 24.4733 142.668C24.5296 142.579 24.5588 142.488 24.561 142.395V141.82L24.0605 141.83C23.8048 141.834 23.5903 141.86 23.417 141.907C23.2458 141.955 23.1169 142.03 23.0303 142.132C22.9458 142.234 22.9035 142.367 22.9035 142.531C22.9035 142.72 22.9685 142.867 23.0985 142.973C23.2307 143.08 23.4008 143.133 23.6088 143.133ZM27.5052 140.074C27.7457 140.074 27.9624 140.121 28.1552 140.214C28.348 140.305 28.5051 140.435 28.6264 140.604C28.7499 140.773 28.8269 140.973 28.8572 141.202H28.3242C28.3047 141.085 28.2592 140.978 28.1877 140.88C28.1184 140.783 28.0263 140.705 27.9114 140.646C27.7966 140.588 27.6623 140.559 27.5084 140.559C27.2203 140.559 26.9863 140.663 26.8064 140.871C26.6266 141.079 26.5367 141.397 26.5367 141.826C26.5367 142.214 26.619 142.525 26.7837 142.759C26.9505 142.991 27.1954 143.107 27.5182 143.107C27.672 143.107 27.8053 143.077 27.9179 143.019C28.0328 142.958 28.1249 142.879 28.1942 142.782C28.2635 142.682 28.3079 142.576 28.3274 142.463H28.8507C28.8225 142.689 28.7467 142.884 28.6232 143.048C28.4997 143.213 28.3415 143.341 28.1487 143.432C27.958 143.521 27.7435 143.565 27.5052 143.565C27.204 143.565 26.9364 143.499 26.7024 143.367C26.4706 143.235 26.2886 143.04 26.1564 142.782C26.0243 142.524 25.9582 142.208 25.9582 141.833C25.9582 141.482 26.0178 141.175 26.1369 140.913C26.2583 140.649 26.4338 140.443 26.6634 140.295C26.8953 140.148 27.1759 140.074 27.5052 140.074ZM31.0091 140.074C31.2496 140.074 31.4663 140.121 31.6591 140.214C31.8519 140.305 32.009 140.435 32.1304 140.604C32.2539 140.773 32.3308 140.973 32.3611 141.202H31.8281C31.8086 141.085 31.7631 140.978 31.6916 140.88C31.6223 140.783 31.5302 140.705 31.4154 140.646C31.3005 140.588 31.1662 140.559 31.0124 140.559C30.7242 140.559 30.4902 140.663 30.3104 140.871C30.1305 141.079 30.0406 141.397 30.0406 141.826C30.0406 142.214 30.1229 142.525 30.2876 142.759C30.4544 142.991 30.6993 143.107 31.0221 143.107C31.1759 143.107 31.3092 143.077 31.4219 143.019C31.5367 142.958 31.6288 142.879 31.6981 142.782C31.7674 142.682 31.8119 142.576 31.8314 142.463H32.3546C32.3264 142.689 32.2506 142.884 32.1271 143.048C32.0036 143.213 31.8454 143.341 31.6526 143.432C31.4619 143.521 31.2474 143.565 31.0091 143.565C30.7079 143.565 30.4404 143.499 30.2064 143.367C29.9745 143.235 29.7925 143.04 29.6604 142.782C29.5282 142.524 29.4621 142.208 29.4621 141.833C29.4621 141.482 29.5217 141.175 29.6409 140.913C29.7622 140.649 29.9377 140.443 30.1674 140.295C30.3992 140.148 30.6798 140.074 31.0091 140.074ZM34.5098 143.565C34.1999 143.565 33.9291 143.499 33.6973 143.367C33.4654 143.232 33.2856 143.036 33.1578 142.778C33.0299 142.521 32.966 142.205 32.966 141.833C32.966 141.482 33.0256 141.174 33.1448 140.91C33.2639 140.645 33.4383 140.441 33.668 140.295C33.8998 140.148 34.1804 140.074 34.5098 140.074C34.8196 140.074 35.0883 140.143 35.3158 140.279C35.5454 140.414 35.7231 140.612 35.8488 140.874C35.9744 141.136 36.0373 141.456 36.0373 141.833C36.0373 142.175 35.9788 142.476 35.8618 142.736C35.7469 142.996 35.5758 143.2 35.3483 143.347C35.1229 143.492 34.8434 143.565 34.5098 143.565ZM34.5098 143.09C34.7113 143.09 34.8813 143.04 35.02 142.938C35.1587 142.836 35.2638 142.69 35.3353 142.499C35.4068 142.308 35.4425 142.082 35.4425 141.82C35.4425 141.579 35.4111 141.364 35.3483 141.173C35.2854 140.98 35.1847 140.827 35.046 140.715C34.9095 140.602 34.7308 140.546 34.5098 140.546C34.3061 140.546 34.1338 140.597 33.993 140.698C33.8522 140.798 33.7449 140.943 33.6713 141.134C33.5998 141.325 33.564 141.553 33.564 141.82C33.564 142.056 33.5965 142.27 33.6615 142.463C33.7265 142.656 33.8283 142.809 33.967 142.921C34.1057 143.034 34.2866 143.09 34.5098 143.09ZM38.0018 143.565C37.8263 143.563 37.6605 143.538 37.5045 143.49C37.3507 143.44 37.2142 143.368 37.095 143.272C36.9759 143.177 36.8816 143.059 36.8123 142.918C36.7451 142.775 36.7115 142.609 36.7115 142.421V140.139H37.3128V142.359C37.3128 142.578 37.3799 142.756 37.5143 142.892C37.6508 143.029 37.8555 143.097 38.1285 143.097C38.3755 143.097 38.5738 143.033 38.7233 142.905C38.8749 142.775 38.9508 142.582 38.9508 142.327V140.139H39.5488V143.5H39.071L39.0093 142.856C38.9681 143.025 38.8977 143.162 38.798 143.266C38.7005 143.37 38.5824 143.447 38.4438 143.497C38.3073 143.544 38.1599 143.567 38.0018 143.565ZM40.5309 143.5V140.139H41.1127V140.627C41.1669 140.534 41.2416 140.446 41.3369 140.364C41.4344 140.281 41.5514 140.215 41.6879 140.165C41.8266 140.116 41.9859 140.091 42.1657 140.091C42.378 140.091 42.573 140.133 42.7507 140.218C42.9305 140.302 43.0735 140.434 43.1797 140.614C43.288 140.792 43.3422 141.021 43.3422 141.303V143.5H42.7409V141.361C42.7409 141.099 42.6716 140.905 42.5329 140.78C42.3964 140.652 42.2188 140.588 41.9999 140.588C41.8483 140.588 41.7064 140.613 41.5742 140.663C41.442 140.71 41.3348 140.784 41.2524 140.884C41.1701 140.981 41.1289 141.105 41.1289 141.254V143.5H40.5309ZM45.831 140.578H45.0738V142.668C45.0738 142.787 45.0857 142.875 45.1095 142.931C45.1355 142.985 45.1778 143.02 45.2363 143.035C45.2969 143.05 45.3793 143.058 45.4833 143.058H45.8505V143.461C45.8094 143.476 45.7465 143.489 45.662 143.5C45.5797 143.511 45.4768 143.516 45.3533 143.516C45.1214 143.516 44.9416 143.485 44.8138 143.422C44.6859 143.359 44.596 143.266 44.544 143.142C44.4942 143.019 44.4693 142.867 44.4693 142.688V140.578H43.9233V140.139H44.4855L44.6318 139.161H45.0738V140.136H45.831V140.578ZM48.8426 140.139V143.5H48.2608V140.139H48.8426ZM48.8556 138.804V139.428H48.2413V138.804H48.8556ZM51.0928 143.565C50.8588 143.565 50.6411 143.529 50.4396 143.458C50.2402 143.384 50.0745 143.27 49.9423 143.116C49.8102 142.96 49.7267 142.762 49.6921 142.522H50.2381C50.2684 142.654 50.3226 142.764 50.4006 142.853C50.4807 142.94 50.5804 143.006 50.6996 143.051C50.8187 143.095 50.9487 143.116 51.0896 143.116C51.3149 143.116 51.4969 143.074 51.6356 142.99C51.7742 142.905 51.8436 142.775 51.8436 142.6C51.8436 142.476 51.8067 142.378 51.7331 142.304C51.6616 142.228 51.55 142.173 51.3983 142.138L50.7028 141.966C50.432 141.901 50.2153 141.799 50.0528 141.66C49.8903 141.522 49.8091 141.328 49.8091 141.079C49.8069 140.882 49.8535 140.708 49.9488 140.559C50.0442 140.409 50.1872 140.291 50.3778 140.204C50.5685 140.118 50.8057 140.074 51.0896 140.074C51.4536 140.074 51.7472 140.157 51.9703 140.321C52.1957 140.484 52.3127 140.723 52.3213 141.04H51.7916C51.7699 140.879 51.6973 140.753 51.5738 140.659C51.4525 140.564 51.2889 140.516 51.0831 140.516C50.8686 140.516 50.6942 140.56 50.5598 140.646C50.4255 140.731 50.3583 140.863 50.3583 141.043C50.3583 141.162 50.406 141.256 50.5013 141.326C50.5967 141.393 50.7375 141.449 50.9238 141.495L51.5966 141.664C51.7526 141.705 51.8804 141.759 51.9801 141.826C52.0819 141.893 52.1621 141.968 52.2206 142.05C52.2812 142.133 52.3235 142.219 52.3473 142.31C52.3733 142.399 52.3863 142.485 52.3863 142.567C52.3863 142.773 52.3343 142.951 52.2303 143.1C52.1285 143.248 51.9812 143.362 51.7883 143.445C51.5977 143.525 51.3658 143.565 51.0928 143.565ZM58.3932 141.709C58.3932 142.088 58.3314 142.418 58.2079 142.697C58.0844 142.975 57.884 143.189 57.6067 143.341C57.3315 143.49 56.9664 143.565 56.5114 143.565C56.0543 143.565 55.6881 143.489 55.4129 143.337C55.1378 143.184 54.9384 142.966 54.8149 142.684C54.6936 142.403 54.6329 142.067 54.6329 141.677V138.8H55.5982V141.748C55.5982 142.099 55.6827 142.356 55.8517 142.518C56.0207 142.679 56.2406 142.759 56.5114 142.759C56.6913 142.759 56.8505 142.724 56.9892 142.655C57.1279 142.583 57.2362 142.474 57.3142 142.327C57.3944 142.177 57.4344 141.984 57.4344 141.748V138.8H58.3932V141.709ZM61.1013 143.565C60.8695 143.565 60.642 143.536 60.4188 143.477C60.1956 143.419 59.992 143.331 59.8078 143.214C59.6236 143.097 59.4709 142.951 59.3496 142.775C59.2304 142.6 59.1589 142.394 59.1351 142.158H60.1068C60.1393 142.301 60.2011 142.421 60.2921 142.518C60.3831 142.616 60.4979 142.691 60.6366 142.743C60.7752 142.795 60.9291 142.821 61.0981 142.821C61.2714 142.821 61.4296 142.799 61.5726 142.756C61.7156 142.712 61.8304 142.647 61.9171 142.561C62.0037 142.472 62.0471 142.361 62.0471 142.229C62.0471 142.11 62.0113 142.013 61.9398 141.937C61.8705 141.861 61.7762 141.799 61.6571 141.751C61.5379 141.704 61.4025 141.665 61.2508 141.634L60.4383 141.469C60.083 141.402 59.8013 141.261 59.5933 141.046C59.3853 140.83 59.2781 140.541 59.2716 140.182C59.2694 139.887 59.3474 139.632 59.5056 139.418C59.6659 139.201 59.8826 139.034 60.1556 138.917C60.4307 138.8 60.7384 138.742 61.0786 138.742C61.4837 138.742 61.8239 138.806 62.0991 138.934C62.3764 139.059 62.5866 139.231 62.7296 139.447C62.8747 139.662 62.9495 139.901 62.9538 140.165H62.0016C61.9842 140.001 61.9344 139.87 61.8521 139.772C61.7697 139.675 61.6636 139.604 61.5336 139.561C61.4057 139.518 61.2595 139.496 61.0948 139.496C60.9691 139.496 60.8543 139.51 60.7503 139.538C60.6485 139.566 60.5618 139.606 60.4903 139.658C60.4188 139.708 60.3636 139.768 60.3246 139.837C60.2856 139.907 60.2661 139.985 60.2661 140.071C60.2661 140.208 60.3116 140.318 60.4026 140.403C60.4936 140.487 60.6636 140.557 60.9128 140.611L61.7188 140.776C62.007 140.833 62.2356 140.916 62.4046 141.027C62.5757 141.137 62.7036 141.262 62.7881 141.4C62.8747 141.539 62.9311 141.681 62.9571 141.826C62.9852 141.969 62.9993 142.101 62.9993 142.223C62.9993 142.476 62.9191 142.705 62.7588 142.908C62.6006 143.11 62.3796 143.27 62.0958 143.389C61.812 143.507 61.4805 143.565 61.1013 143.565ZM66.9921 143.565C66.4288 143.565 65.9716 143.452 65.6206 143.227C65.2696 142.999 65.0681 142.65 65.0161 142.177L66.0041 142.158C66.0561 142.372 66.1677 142.536 66.3388 142.648C66.5122 142.759 66.7288 142.814 66.9888 142.814C67.1448 142.814 67.2824 142.789 67.4016 142.739C67.5229 142.687 67.6183 142.618 67.6876 142.531C67.7569 142.443 67.7916 142.342 67.7916 142.229C67.7916 142.056 67.7363 141.927 67.6258 141.842C67.5153 141.756 67.3453 141.686 67.1156 141.634L66.3453 141.469C65.9878 141.397 65.7008 141.255 65.4841 141.043C65.2696 140.828 65.1602 140.541 65.1558 140.182C65.1537 139.887 65.2328 139.632 65.3931 139.418C65.5556 139.201 65.7755 139.034 66.0528 138.917C66.3323 138.8 66.6454 138.742 66.9921 138.742C67.3474 138.742 67.654 138.806 67.9118 138.934C68.1718 139.059 68.3712 139.229 68.5098 139.444C68.6507 139.656 68.7189 139.891 68.7146 140.149L67.7558 140.165C67.7255 139.957 67.6562 139.794 67.5478 139.675C67.4395 139.556 67.2597 139.496 67.0083 139.496C66.8783 139.496 66.7624 139.51 66.6606 139.538C66.5588 139.566 66.471 139.606 66.3973 139.658C66.3237 139.708 66.2673 139.768 66.2283 139.837C66.1915 139.907 66.1731 139.985 66.1731 140.071C66.1731 140.208 66.2186 140.316 66.3096 140.396C66.4028 140.474 66.5772 140.547 66.8328 140.614L67.5901 140.799C68.0169 140.901 68.3246 141.075 68.5131 141.322C68.7038 141.569 68.7991 141.87 68.7991 142.223C68.7991 142.494 68.7243 142.73 68.5748 142.931C68.4275 143.133 68.2184 143.289 67.9476 143.399C67.6768 143.51 67.3583 143.565 66.9921 143.565ZM66.5858 138.128H67.4081V138.973H66.5858V138.128ZM66.5696 143.276H67.3886V144.121H66.5696V143.276ZM70.2367 143.5V139.98H69.3982V139.444C69.6668 139.444 69.8835 139.419 70.0482 139.369C70.215 139.317 70.3396 139.244 70.4219 139.148C70.5042 139.051 70.553 138.935 70.5682 138.8H71.1987V143.5H70.2367ZM73.9984 138.735C74.5574 138.735 74.9983 138.945 75.3212 139.363C75.644 139.779 75.8054 140.378 75.8054 141.16C75.8054 141.938 75.6462 142.535 75.3277 142.951C75.0092 143.365 74.5661 143.572 73.9984 143.572C73.4286 143.572 72.9833 143.365 72.6627 142.951C72.3442 142.537 72.1849 141.941 72.1849 141.163C72.1849 140.643 72.2586 140.202 72.4059 139.84C72.5533 139.479 72.7623 139.205 73.0332 139.018C73.304 138.83 73.6258 138.735 73.9984 138.735ZM73.9984 142.795C74.2779 142.795 74.4827 142.67 74.6127 142.421C74.7427 142.17 74.8077 141.75 74.8077 141.163C74.8077 140.563 74.7416 140.133 74.6094 139.873C74.4773 139.613 74.2725 139.483 73.9952 139.483C73.7178 139.483 73.5109 139.614 73.3744 139.876C73.2401 140.138 73.1729 140.567 73.1729 141.163C73.1729 141.748 73.2401 142.166 73.3744 142.418C73.5088 142.669 73.7168 142.795 73.9984 142.795ZM78.4842 138.8H79.417V141.664H80.1417V142.46H79.417V143.5H78.5037L78.507 142.46H76.3425V141.68L78.4842 138.8ZM77.22 141.664H78.507V139.941L77.22 141.664ZM80.6504 143.5V142.466H81.6904V143.5H80.6504ZM84.0923 143.572C83.7998 143.572 83.5268 143.515 83.2733 143.402C83.0198 143.29 82.8129 143.132 82.6526 142.928C82.4922 142.722 82.4023 142.482 82.3828 142.206H83.2863C83.3253 142.388 83.412 142.537 83.5463 142.652C83.6806 142.764 83.8496 142.821 84.0533 142.821C84.2786 142.821 84.4758 142.768 84.6448 142.661C84.816 142.555 84.9438 142.386 85.0283 142.154C85.115 141.923 85.1453 141.619 85.1193 141.244C85.0586 141.359 84.9741 141.46 84.8658 141.547C84.7596 141.631 84.6351 141.697 84.4921 141.745C84.3491 141.79 84.1898 141.813 84.0143 141.813C83.6958 141.813 83.4131 141.754 83.1661 141.634C82.9212 141.513 82.7284 141.342 82.5876 141.121C82.4489 140.898 82.3796 140.633 82.3796 140.328C82.3796 140.02 82.4532 139.746 82.6006 139.506C82.7479 139.265 82.9537 139.077 83.2181 138.94C83.4824 138.804 83.7922 138.735 84.1476 138.735C84.5462 138.735 84.8896 138.831 85.1778 139.021C85.4681 139.21 85.6902 139.479 85.8441 139.828C86.0001 140.174 86.0781 140.583 86.0781 141.053C86.0781 141.614 85.9979 142.082 85.8376 142.457C85.6794 142.829 85.4519 143.109 85.1551 143.295C84.8582 143.479 84.504 143.572 84.0923 143.572ZM84.1768 141.059C84.309 141.059 84.4368 141.03 84.5603 140.971C84.686 140.911 84.7889 140.835 84.8691 140.744C84.9492 140.653 84.9893 140.559 84.9893 140.461C84.9915 140.251 84.9579 140.071 84.8886 139.922C84.8214 139.77 84.7261 139.654 84.6026 139.574C84.4812 139.494 84.3393 139.454 84.1768 139.454C84.0273 139.454 83.8941 139.488 83.7771 139.558C83.6601 139.627 83.568 139.725 83.5008 139.85C83.4336 139.976 83.4001 140.121 83.4001 140.286C83.4001 140.531 83.4716 140.721 83.6146 140.858C83.7576 140.992 83.945 141.059 84.1768 141.059ZM88.4457 138.735C89.0047 138.735 89.4456 138.945 89.7684 139.363C90.0913 139.779 90.2527 140.378 90.2527 141.16C90.2527 141.938 90.0934 142.535 89.7749 142.951C89.4564 143.365 89.0134 143.572 88.4457 143.572C87.8759 143.572 87.4306 143.365 87.1099 142.951C86.7914 142.537 86.6322 141.941 86.6322 141.163C86.6322 140.643 86.7059 140.202 86.8532 139.84C87.0005 139.479 87.2096 139.205 87.4804 139.018C87.7513 138.83 88.073 138.735 88.4457 138.735ZM88.4457 142.795C88.7252 142.795 88.9299 142.67 89.0599 142.421C89.1899 142.17 89.2549 141.75 89.2549 141.163C89.2549 140.563 89.1889 140.133 89.0567 139.873C88.9245 139.613 88.7198 139.483 88.4424 139.483C88.1651 139.483 87.9582 139.614 87.8217 139.876C87.6874 140.138 87.6202 140.567 87.6202 141.163C87.6202 141.748 87.6874 142.166 87.8217 142.418C87.956 142.669 88.164 142.795 88.4457 142.795ZM90.8931 143.5V142.733H91.6081V143.5H90.8931Z" fill="#36536B"/>
</g>
</g>
<defs>
<filter id="filter0_d_0_2411" x="-53.4475" y="-54.6582" width="315.765" height="459.317" filterUnits="userSpaceOnUse" color-interpolation-filters="sRGB">
<feFlood flood-opacity="0" result="BackgroundImageFix"/>
<feColorMatrix in="SourceAlpha" type="matrix" values="0 0 0 0 0 0 0 0 0 0 0 0 0 0 0 0 0 0 127 0" result="hardAlpha"/>
<feOffset dx="25" dy="25"/>
<feGaussianBlur stdDeviation="40"/>
<feColorMatrix type="matrix" values="0 0 0 0 0.212302 0 0 0 0 0.32521 0 0 0 0 0.419299 0 0 0 0.300727 0"/>
<feBlend mode="normal" in2="BackgroundImageFix" result="effect1_dropShadow_0_2411"/>
<feBlend mode="normal" in="SourceGraphic" in2="effect1_dropShadow_0_2411" result="shape"/>
</filter>
<filter id="filter1_d_0_2411" x="7.80542" y="95" width="161.255" height="83.1914" filterUnits="userSpaceOnUse" color-interpolation-filters="sRGB">
<feFlood flood-opacity="0" result="BackgroundImageFix"/>
<feColorMatrix in="SourceAlpha" type="matrix" values="0 0 0 0 0 0 0 0 0 0 0 0 0 0 0 0 0 0 127 0" result="hardAlpha"/>
<feMorphology radius="10" operator="erode" in="SourceAlpha" result="effect1_dropShadow_0_2411"/>
<feOffset dx="10" dy="10"/>
<feGaussianBlur stdDeviation="12.5"/>
<feColorMatrix type="matrix" values="0 0 0 0 0.212302 0 0 0 0 0.32521 0 0 0 0 0.419299 0 0 0 0.25 0"/>
<feBlend mode="normal" in2="BackgroundImageFix" result="effect1_dropShadow_0_2411"/>
<feBlend mode="normal" in="SourceGraphic" in2="effect1_dropShadow_0_2411" result="shape"/>
</filter>
<linearGradient id="paint0_linear_0_2411" x1="6.05457" y1="0" x2="6.05457" y2="7.39437" gradientUnits="userSpaceOnUse">
<stop stop-color="#454545"/>
<stop offset="0.226279" stop-color="#999999"/>
<stop offset="1" stop-color="white"/>
</linearGradient>
<linearGradient id="paint1_linear_0_2411" x1="157.249" y1="51.4485" x2="151.529" y2="51.4485" gradientUnits="userSpaceOnUse">
<stop stop-color="white" stop-opacity="0.01"/>
<stop offset="0.222178" stop-color="#BABABA"/>
<stop offset="0.54678" stop-color="white" stop-opacity="0.01"/>
<stop offset="1" stop-color="white" stop-opacity="0.01"/>
</linearGradient>
<linearGradient id="paint2_linear_0_2411" x1="1.55249" y1="51.2921" x2="7.28137" y2="51.2921" gradientUnits="userSpaceOnUse">
<stop stop-color="white" stop-opacity="0.01"/>
<stop offset="0.222178" stop-color="#BABABA"/>
<stop offset="0.54678" stop-color="white" stop-opacity="0.01"/>
<stop offset="1" stop-color="white" stop-opacity="0.01"/>
</linearGradient>
<linearGradient id="paint3_linear_0_2411" x1="9.54885" y1="7" x2="9.54885" y2="283.828" gradientUnits="userSpaceOnUse">
<stop stop-color="#9CB6CD"/>
<stop offset="0.420564" stop-color="#9AB3CA"/>
<stop offset="0.716592" stop-color="#557496"/>
<stop offset="1" stop-color="#475178"/>
</linearGradient>
<clipPath id="clip0_0_2411">
<rect width="132" height="54" fill="white" transform="translate(12.8054 100)"/>
</clipPath>
</defs>
</svg>
